<?xml version="1.0" encoding="utf-8"?>
<!-- Generator: Adobe Illustrator 27.5.0, SVG Export Plug-In . SVG Version: 6.00 Build 0)  -->
<svg version="1.1" id="Layer_1" xmlns="http://www.w3.org/2000/svg" xmlns:xlink="http://www.w3.org/1999/xlink" x="0px" y="0px"
	 viewBox="0 0 300 49.4" style="enable-background:new 0 0 300 49.4;" xml:space="preserve">
<style type="text/css">
	.st0{fill:#F58A1F;}
	.st1{fill:#FFFFFF;}
	.st2{fill:#231F20;}
	.st3{fill:#686868;}
</style>
<g transform="translate(-361.4 -359.4)">
	<path class="st0" d="M415.7,403.6c0,2.9-2.3,5.2-5.2,5.2h-43.9c-2.9,0-5.2-2.3-5.2-5.2v-39c0-2.9,2.3-5.2,5.2-5.2h43.9
		c2.9,0,5.2,2.3,5.2,5.2V403.6z"/>
	<g>
		<path class="st1" d="M385.7,396.9c-1.6-0.1-1.6-0.1-4.3-0.7c0,0,2,7,4.1,6.8c2.1-0.3,4.5-6.3,4.5-6.3
			C389.1,396.8,388.1,397.1,385.7,396.9L385.7,396.9z M390.2,397c0,0,2.4,5,4.2,4.4c1.8-0.6,3.5-5.3,3.5-5.3L390.2,397z
			 M398.1,396.3c0,0,3.2,3.2,4.7,2.3c1.5-1,2.1-5,2.1-5L398.1,396.3L398.1,396.3z"/>
	</g>
	<path d="M389.5,398.2c-9.9,0.3-19.2-4.5-20.2-5.1c0,0-3.4-22.3,19-22.7c22.5-0.4,20.2,20.7,20.2,20.7
		C407.8,391.9,399.9,397.9,389.5,398.2z"/>
	<path d="M383.3,362.3l2.7,5.3l2.7-2.6l-0.7,8l-3.3-1l-4.5-5.7l4.5,2.4L383.3,362.3z"/>
	<g>
		
			<ellipse transform="matrix(0.9699 -0.2435 0.2435 0.9699 -81.4693 107.9162)" class="st1" cx="395.8" cy="383.5" rx="6.7" ry="10.1"/>
		
			<ellipse transform="matrix(0.1361 -0.9907 0.9907 0.1361 -50.5616 709.2783)" class="st1" cx="381.4" cy="383.6" rx="10.1" ry="6.7"/>
	</g>
	<g>
		<ellipse class="st2" cx="384.5" cy="383.6" rx="1.5" ry="2.8"/>
		<ellipse class="st2" cx="392.7" cy="383.5" rx="1.5" ry="2.8"/>
	</g>
</g>
<g transform="translate(-361.4 -359.4)">
	<path class="st1" d="M434.2,369.3h4.2L445,385h-4.6l-1.1-2.8h-6l-1.1,2.8h-4.5L434.2,369.3L434.2,369.3z M437.9,378.9l-1.7-4.4
		l-1.8,4.4H437.9z M445.4,369.4h4l6.4,8.2v-8.2h4.2V385h-3.8l-6.7-8.5v8.5h-4.2v-15.6H445.4z M461.8,369.4h4.3V385h-4.3V369.4z
		 M467.9,369.4h4.6l3.7,6l3.7-6h4.6V385h-4.3v-9l-4,6.1h-0.1l-3.9-6.1v8.9H468v-15.5H467.9z M491.4,369.3h4.2l6.6,15.7h-4.6
		l-1.1-2.8h-6l-1.1,2.8h-4.5L491.4,369.3z M495.2,378.9l-1.7-4.4l-1.8,4.4H495.2z M506.4,373.2h-4.7v-3.8h13.7v3.8h-4.7V385h-4.3
		L506.4,373.2L506.4,373.2z M516.3,369.4h4.3V385h-4.3V369.4z M530.2,385.3c-1.2,0-2.3-0.2-3.3-0.6s-1.9-1-2.6-1.7
		c-0.7-0.7-1.3-1.6-1.7-2.6s-0.6-2-0.6-3.1s0.2-2.2,0.6-3.1c0.4-1,1-1.8,1.8-2.6c0.8-0.7,1.6-1.3,2.7-1.7c1-0.4,2.1-0.6,3.3-0.6
		s2.3,0.2,3.3,0.6s1.9,1,2.6,1.7c0.7,0.7,1.3,1.6,1.7,2.6s0.6,2,0.6,3.1s-0.2,2.2-0.6,3.2c-0.4,1-1,1.8-1.8,2.6
		c-0.8,0.7-1.6,1.3-2.7,1.7C532.5,385.1,531.4,385.3,530.2,385.3z M530.2,381.4c0.6,0,1.1-0.1,1.6-0.3c0.5-0.2,0.9-0.5,1.2-0.9
		s0.6-0.8,0.8-1.3s0.3-1,0.3-1.6s-0.1-1.1-0.3-1.6s-0.5-0.9-0.8-1.3c-0.4-0.4-0.8-0.7-1.3-0.9c-0.5-0.2-1-0.3-1.6-0.3
		s-1.1,0.1-1.6,0.3c-0.5,0.2-0.9,0.5-1.2,0.9c-0.4,0.4-0.6,0.8-0.8,1.3s-0.3,1-0.3,1.6s0.1,1.1,0.3,1.6s0.5,0.9,0.8,1.3
		s0.8,0.7,1.3,0.9C529.1,381.3,529.6,381.4,530.2,381.4z M539.7,369.4h4l6.4,8.2v-8.2h4.2V385h-3.8l-6.7-8.5v8.5h-4.2L539.7,369.4
		L539.7,369.4z"/>
	<g>
		<path class="st0" d="M558.7,369.4h4.6l3.7,6l3.7-6h4.6V385H571v-9l-4,6.1h-0.1l-3.9-6v8.9h-4.2L558.7,369.4L558.7,369.4z
			 M576.9,369.4h12.5v3.7h-8.3v2.4h7.5v3.4h-7.5v2.5h8.4v3.7h-12.6L576.9,369.4L576.9,369.4z M590.6,369.4h4l6.4,8.2v-8.2h4.2V385
			h-3.8l-6.7-8.5v8.5h-4.2L590.6,369.4L590.6,369.4z M610.8,373.2h-4.7v-3.8h13.7v3.8h-4.7V385h-4.3V373.2z M628.4,385.3
			c-1.2,0-2.3-0.2-3.3-0.6s-1.9-1-2.6-1.7c-0.7-0.7-1.3-1.6-1.7-2.6s-0.6-2-0.6-3.1s0.2-2.2,0.6-3.1c0.4-1,1-1.8,1.8-2.6
			c0.8-0.7,1.6-1.3,2.7-1.7c1-0.4,2.1-0.6,3.3-0.6s2.3,0.2,3.3,0.6s1.9,1,2.6,1.7c0.7,0.7,1.3,1.6,1.7,2.6s0.6,2,0.6,3.1
			s-0.2,2.2-0.6,3.1c-0.4,1-1,1.8-1.8,2.6c-0.8,0.7-1.6,1.3-2.7,1.7C630.7,385.1,629.6,385.3,628.4,385.3z M628.4,381.4
			c0.6,0,1.1-0.1,1.6-0.3c0.5-0.2,0.9-0.5,1.2-0.9s0.6-0.8,0.8-1.3s0.3-1,0.3-1.6s-0.1-1.1-0.3-1.6s-0.5-0.9-0.8-1.3
			c-0.4-0.4-0.8-0.7-1.3-0.9c-0.5-0.2-1-0.3-1.6-0.3s-1.1,0.1-1.6,0.3c-0.5,0.2-0.9,0.5-1.2,0.9s-0.6,0.8-0.8,1.3s-0.3,1-0.3,1.6
			s0.1,1.1,0.3,1.6s0.5,0.9,0.8,1.3s0.8,0.7,1.3,0.9C627.3,381.3,627.8,381.4,628.4,381.4z M637.9,369.4h7.4c1.2,0,2.2,0.1,3,0.4
			s1.5,0.7,2,1.2c0.9,0.9,1.4,2.1,1.4,3.6c0,1.2-0.3,2.2-0.9,3c-0.6,0.8-1.4,1.4-2.3,1.8l3.7,5.4h-5l-3.1-4.7h-1.8v4.7H638
			L637.9,369.4L637.9,369.4z M645.1,376.9c0.7,0,1.3-0.2,1.7-0.5s0.6-0.8,0.6-1.3c0-0.6-0.2-1.1-0.6-1.4c-0.4-0.3-1-0.5-1.7-0.5
			h-2.8v3.7L645.1,376.9L645.1,376.9z"/>
	</g>
	<g>
		<path class="st3" d="M658.2,368.5c0.6,0,1.1,0.1,1.6,0.4s0.9,0.7,1.2,1.2s0.4,1.1,0.4,1.6c0,0.6-0.1,1.1-0.4,1.6
			c-0.3,0.5-0.7,0.9-1.2,1.2c-0.5,0.3-1.1,0.4-1.6,0.4c-0.6,0-1.1-0.1-1.6-0.4s-0.9-0.7-1.2-1.2s-0.4-1.1-0.4-1.6
			c0-0.6,0.1-1.1,0.4-1.6c0.3-0.5,0.7-0.9,1.2-1.2C657.1,368.6,657.6,368.5,658.2,368.5z M658.2,369c-0.5,0-0.9,0.1-1.3,0.4
			c-0.4,0.2-0.8,0.6-1,1s-0.4,0.9-0.4,1.4s0.1,0.9,0.4,1.4c0.2,0.4,0.6,0.8,1,1s0.9,0.4,1.4,0.4s0.9-0.1,1.4-0.4
			c0.4-0.2,0.8-0.6,1-1s0.4-0.9,0.4-1.4s-0.1-0.9-0.4-1.4c-0.2-0.4-0.6-0.8-1-1C659.1,369.2,658.6,369,658.2,369L658.2,369z
			 M656.7,373.6v-3.5h1.2c0.4,0,0.7,0,0.9,0.1s0.3,0.2,0.4,0.3c0.1,0.2,0.2,0.3,0.2,0.5c0,0.3-0.1,0.5-0.3,0.7s-0.4,0.3-0.7,0.3
			c0.1,0.1,0.2,0.1,0.3,0.2s0.3,0.4,0.5,0.7l0.4,0.7H659l-0.3-0.6c-0.2-0.4-0.4-0.7-0.6-0.8c-0.1-0.1-0.3-0.1-0.5-0.1h-0.3v1.5
			L656.7,373.6L656.7,373.6z M657.3,371.6h0.7c0.3,0,0.6,0,0.7-0.1c0.1-0.1,0.2-0.2,0.2-0.4c0-0.1,0-0.2-0.1-0.3l-0.2-0.2
			c-0.1,0-0.3-0.1-0.6-0.1h-0.6v1.1H657.3z"/>
	</g>
</g>
<g transform="translate(-361.4 -359.4)">
	<g>
		<path class="st3" d="M431,392h-3.1v-1.6h8v1.6h-3.1v8.2H431V392z M437.4,390h1.7v4c0.1-0.2,0.3-0.3,0.4-0.5s0.3-0.3,0.5-0.4
			l0.6-0.3c0.2-0.1,0.5-0.1,0.8-0.1c0.8,0,1.5,0.3,1.9,0.8c0.5,0.5,0.7,1.2,0.7,2.1v4.7h-1.7V396c0-0.6-0.1-1-0.4-1.3
			s-0.7-0.5-1.2-0.5s-0.9,0.2-1.2,0.5c-0.3,0.3-0.5,0.8-0.5,1.3v4.2h-1.7V390H437.4z M449.5,400.4c-0.5,0-1-0.1-1.5-0.3
			c-0.5-0.2-0.9-0.4-1.2-0.8c-0.3-0.3-0.6-0.7-0.8-1.2c-0.2-0.5-0.3-1-0.3-1.6c0-0.5,0.1-1,0.3-1.5c0.2-0.5,0.4-0.9,0.7-1.2
			c0.3-0.3,0.7-0.6,1.1-0.8c0.4-0.2,0.9-0.3,1.5-0.3s1.1,0.1,1.5,0.3c0.4,0.2,0.8,0.5,1.1,0.9c0.3,0.4,0.5,0.8,0.7,1.3
			c0.1,0.5,0.2,1,0.2,1.5v0.4h-5.4c0.1,0.6,0.3,1.1,0.7,1.4c0.4,0.3,0.9,0.5,1.4,0.5c0.4,0,0.8-0.1,1.1-0.2c0.3-0.1,0.6-0.4,0.9-0.7
			l1,0.9c-0.4,0.4-0.8,0.8-1.3,1C450.8,400.2,450.2,400.4,449.5,400.4L449.5,400.4z M451.2,396c0-0.3-0.1-0.5-0.2-0.8
			c-0.1-0.2-0.2-0.4-0.4-0.6c-0.2-0.2-0.3-0.3-0.6-0.4c-0.2-0.1-0.5-0.2-0.7-0.2c-0.5,0-1,0.2-1.3,0.5c-0.3,0.4-0.5,0.8-0.6,1.4h3.8
			L451.2,396z M463.6,400.4c-0.8,0-1.4-0.1-2.1-0.4c-0.6-0.3-1.2-0.6-1.6-1.1s-0.8-1-1.1-1.6c-0.3-0.6-0.4-1.3-0.4-2s0.1-1.3,0.4-2
			c0.3-0.6,0.6-1.1,1.1-1.6s1-0.8,1.6-1.1c0.6-0.3,1.3-0.4,2.1-0.4s1.4,0.1,2.1,0.4c0.6,0.3,1.2,0.6,1.6,1.1s0.8,1,1,1.6
			c0.3,0.6,0.4,1.3,0.4,2s-0.1,1.3-0.4,2c-0.3,0.6-0.6,1.1-1.1,1.6s-1,0.8-1.6,1.1C465.1,400.2,464.4,400.4,463.6,400.4z
			 M463.7,398.8c0.5,0,0.9-0.1,1.3-0.3c0.4-0.2,0.8-0.4,1-0.7c0.2-0.3,0.5-0.7,0.7-1.1s0.2-0.9,0.2-1.3c0-0.5-0.1-0.9-0.2-1.4
			c-0.2-0.4-0.4-0.8-0.7-1.1c-0.3-0.3-0.6-0.6-1.1-0.7c-0.4-0.2-0.9-0.3-1.3-0.3c-0.5,0-0.9,0.1-1.3,0.3c-0.4,0.2-0.8,0.4-1,0.7
			c-0.3,0.3-0.5,0.7-0.7,1.1s-0.2,0.9-0.2,1.3c0,0.5,0.1,0.9,0.2,1.4c0.2,0.4,0.4,0.8,0.7,1.1c0.3,0.3,0.6,0.6,1.1,0.7
			C462.7,398.7,463.2,398.8,463.7,398.8z M470.7,392.8h1.7v1.2c0.1-0.2,0.3-0.3,0.4-0.5s0.3-0.3,0.5-0.4l0.6-0.3
			c0.2-0.1,0.5-0.1,0.8-0.1c0.8,0,1.5,0.3,1.9,0.8c0.5,0.5,0.7,1.2,0.7,2.1v4.7h-1.7V396c0-0.6-0.1-1-0.4-1.3s-0.7-0.5-1.2-0.5
			s-0.9,0.2-1.2,0.5c-0.3,0.3-0.5,0.8-0.5,1.3v4.2h-1.7v-7.4L470.7,392.8z M479.5,390h1.7v10.2h-1.7V390z M483.4,390.1h1.8v1.6h-1.8
			V390.1z M483.5,392.8h1.7v7.4h-1.7V392.8z M487.4,392.8h1.7v1.2c0.1-0.2,0.3-0.3,0.4-0.5s0.3-0.3,0.5-0.4l0.6-0.3
			c0.2-0.1,0.5-0.1,0.8-0.1c0.8,0,1.5,0.3,1.9,0.8c0.5,0.5,0.7,1.2,0.7,2.1v4.7h-1.7V396c0-0.6-0.1-1-0.4-1.3s-0.7-0.5-1.2-0.5
			s-0.9,0.2-1.2,0.5c-0.3,0.3-0.5,0.8-0.5,1.3v4.2h-1.7v-7.4L487.4,392.8z M499.4,400.4c-0.5,0-1-0.1-1.5-0.3
			c-0.5-0.2-0.9-0.4-1.2-0.8c-0.3-0.3-0.6-0.7-0.8-1.2c-0.2-0.5-0.3-1-0.3-1.6c0-0.5,0.1-1,0.3-1.5c0.2-0.5,0.4-0.9,0.7-1.2
			c0.3-0.3,0.7-0.6,1.1-0.8c0.4-0.2,0.9-0.3,1.5-0.3s1.1,0.1,1.5,0.3c0.4,0.2,0.8,0.5,1.1,0.9c0.3,0.4,0.5,0.8,0.7,1.3
			c0.1,0.5,0.2,1,0.2,1.5v0.4h-5.4c0.1,0.6,0.3,1.1,0.7,1.4c0.4,0.3,0.9,0.5,1.4,0.5c0.4,0,0.8-0.1,1.1-0.2c0.3-0.1,0.6-0.4,0.9-0.7
			l1,0.9c-0.4,0.4-0.8,0.8-1.3,1C500.7,400.2,500.1,400.4,499.4,400.4L499.4,400.4z M501.1,396c0-0.3-0.1-0.5-0.2-0.8
			c-0.1-0.2-0.2-0.4-0.4-0.6c-0.2-0.2-0.3-0.3-0.6-0.4c-0.2-0.1-0.5-0.2-0.7-0.2c-0.5,0-1,0.2-1.3,0.5c-0.3,0.4-0.5,0.8-0.6,1.4h3.8
			L501.1,396z M512.4,390.3h1.6l4.3,9.9h-1.8l-1-2.4h-4.6l-1,2.4h-1.8L512.4,390.3z M514.8,396.3l-1.7-3.9l-1.7,3.9H514.8z
			 M519.8,392.8h1.7v1.2c0.1-0.2,0.3-0.3,0.4-0.5c0.1-0.2,0.3-0.3,0.5-0.4l0.6-0.3c0.2-0.1,0.5-0.1,0.8-0.1c0.8,0,1.5,0.3,1.9,0.8
			c0.5,0.5,0.7,1.2,0.7,2.1v4.7h-1.7V396c0-0.6-0.1-1-0.4-1.3c-0.3-0.3-0.7-0.5-1.2-0.5s-0.9,0.2-1.2,0.5s-0.5,0.8-0.5,1.3v4.2h-1.7
			v-7.4L519.8,392.8z M528.5,390.1h1.8v1.6h-1.8V390.1z M528.5,392.8h1.7v7.4h-1.7V392.8z M532.4,392.8h1.7v1.1
			c0.1-0.2,0.3-0.3,0.4-0.5c0.1-0.2,0.3-0.3,0.5-0.4l0.6-0.3c0.2-0.1,0.5-0.1,0.8-0.1c0.5,0,1,0.1,1.3,0.4c0.4,0.2,0.6,0.6,0.8,1
			c0.3-0.4,0.7-0.7,1.1-1c0.4-0.2,0.9-0.4,1.5-0.4c0.8,0,1.5,0.2,1.9,0.7c0.5,0.5,0.7,1.2,0.7,2.1v4.7H542V396c0-0.6-0.1-1-0.4-1.3
			c-0.3-0.3-0.6-0.5-1.1-0.5s-0.8,0.2-1.1,0.5s-0.4,0.8-0.4,1.4v4.2h-1.7V396c0-0.6-0.1-1-0.4-1.3c-0.3-0.3-0.6-0.5-1.1-0.5
			s-0.9,0.2-1.1,0.5c-0.3,0.3-0.4,0.8-0.4,1.4v4.1h-1.7v-7.4L532.4,392.8z M550.3,400.2v-0.9c-0.3,0.3-0.6,0.6-1,0.8
			c-0.4,0.2-0.9,0.3-1.4,0.3c-0.4,0-0.7,0-1-0.1s-0.6-0.2-0.8-0.4c-0.2-0.2-0.4-0.4-0.6-0.7c-0.1-0.3-0.2-0.6-0.2-1s0.1-0.8,0.2-1.1
			c0.1-0.3,0.4-0.6,0.6-0.8c0.3-0.2,0.6-0.3,1-0.4s0.8-0.1,1.2-0.1s0.8,0,1.1,0.1s0.6,0.1,0.9,0.2V396c0-0.5-0.2-0.9-0.5-1.2
			c-0.3-0.3-0.8-0.4-1.4-0.4c-0.4,0-0.8,0-1.1,0.1s-0.7,0.2-1,0.3l-0.5-1.4c0.4-0.2,0.8-0.3,1.3-0.4s0.9-0.2,1.6-0.2
			c1.1,0,1.9,0.3,2.4,0.8s0.8,1.3,0.8,2.3v4.4L550.3,400.2L550.3,400.2z M550.3,397.1c-0.2-0.1-0.5-0.2-0.8-0.2
			c-0.3-0.1-0.6-0.1-0.9-0.1c-0.5,0-0.9,0.1-1.2,0.3c-0.3,0.2-0.4,0.5-0.4,0.8c0,0.4,0.1,0.6,0.4,0.8c0.3,0.2,0.6,0.3,1,0.3
			c0.3,0,0.5,0,0.8-0.1l0.6-0.3c0.2-0.1,0.3-0.3,0.4-0.5c0.1-0.2,0.1-0.4,0.1-0.6L550.3,397.1L550.3,397.1z M556.5,400.3
			c-0.3,0-0.6,0-0.9-0.1c-0.3-0.1-0.5-0.2-0.7-0.4c-0.2-0.2-0.3-0.4-0.4-0.7c-0.1-0.3-0.2-0.6-0.2-1v-3.9h-0.9v-1.5h0.9v-2h1.7v2h2
			v1.5h-2v3.6c0,0.3,0.1,0.6,0.2,0.7c0.2,0.1,0.4,0.2,0.7,0.2c0.4,0,0.7-0.1,1-0.3v1.4c-0.2,0.1-0.4,0.2-0.7,0.3
			C557,400.3,556.8,400.3,556.5,400.3L556.5,400.3z M559.7,390.1h1.8v1.6h-1.8V390.1z M559.8,392.8h1.7v7.4h-1.7V392.8z
			 M567.2,400.4c-0.6,0-1.1-0.1-1.6-0.3c-0.5-0.2-0.9-0.5-1.2-0.8c-0.4-0.3-0.6-0.8-0.8-1.2c-0.2-0.5-0.3-1-0.3-1.5s0.1-1,0.3-1.5
			s0.5-0.9,0.8-1.2c0.3-0.3,0.8-0.6,1.2-0.8c0.5-0.2,1-0.3,1.6-0.3s1.1,0.1,1.6,0.3c0.5,0.2,0.9,0.5,1.2,0.8
			c0.4,0.3,0.6,0.8,0.8,1.2c0.2,0.5,0.3,1,0.3,1.5s-0.1,1-0.3,1.5s-0.5,0.9-0.8,1.2c-0.3,0.3-0.8,0.6-1.3,0.8
			C568.3,400.3,567.8,400.4,567.2,400.4z M567.2,398.9c0.3,0,0.7-0.1,0.9-0.2c0.3-0.1,0.5-0.3,0.7-0.5s0.3-0.5,0.4-0.7
			c0.1-0.3,0.2-0.6,0.2-0.9s-0.1-0.6-0.2-0.9c-0.1-0.3-0.3-0.5-0.5-0.8c-0.2-0.2-0.4-0.4-0.7-0.5s-0.6-0.2-0.9-0.2
			c-0.3,0-0.6,0.1-0.9,0.2c-0.3,0.1-0.5,0.3-0.7,0.5s-0.3,0.5-0.4,0.7c-0.1,0.3-0.2,0.6-0.2,0.9s0.1,0.6,0.2,0.9
			c0.1,0.3,0.3,0.5,0.5,0.8c0.2,0.2,0.4,0.4,0.7,0.5S566.9,398.9,567.2,398.9z M572.9,392.8h1.7v1.2c0.1-0.2,0.3-0.3,0.4-0.5
			c0.1-0.2,0.3-0.3,0.5-0.4l0.6-0.3c0.2-0.1,0.5-0.1,0.8-0.1c0.8,0,1.5,0.3,1.9,0.8c0.5,0.5,0.7,1.2,0.7,2.1v4.7h-1.7V396
			c0-0.6-0.1-1-0.4-1.3c-0.3-0.3-0.7-0.5-1.2-0.5s-0.9,0.2-1.2,0.5s-0.5,0.8-0.5,1.3v4.2h-1.7v-7.4L572.9,392.8z M589.4,400.3
			c-0.8,0-1.5-0.1-2.2-0.4s-1.3-0.7-1.9-1.2l1-1.2c0.5,0.4,1,0.7,1.4,0.9c0.5,0.2,1,0.3,1.7,0.3c0.5,0,1-0.1,1.3-0.3
			c0.3-0.2,0.5-0.5,0.5-0.9c0-0.2,0-0.3-0.1-0.5c-0.1-0.1-0.2-0.3-0.3-0.4c-0.2-0.1-0.4-0.2-0.7-0.3c-0.3-0.1-0.7-0.2-1.1-0.3
			c-0.5-0.1-1-0.3-1.4-0.4c-0.4-0.2-0.7-0.3-1-0.6c-0.3-0.2-0.5-0.5-0.6-0.8s-0.2-0.7-0.2-1.1s0.1-0.8,0.2-1.2
			c0.2-0.3,0.4-0.6,0.7-0.9c0.3-0.2,0.6-0.4,1.1-0.6c0.4-0.1,0.9-0.2,1.3-0.2c0.7,0,1.4,0.1,1.9,0.3c0.6,0.2,1.1,0.5,1.6,0.9
			l-0.9,1.3c-0.4-0.3-0.9-0.6-1.3-0.7c-0.4-0.2-0.9-0.3-1.3-0.3c-0.5,0-0.9,0.1-1.2,0.3c-0.3,0.2-0.4,0.5-0.4,0.8
			c0,0.2,0,0.4,0.1,0.5s0.2,0.3,0.4,0.4s0.4,0.2,0.7,0.3c0.3,0.1,0.7,0.2,1.2,0.3c0.5,0.1,1,0.3,1.4,0.4c0.4,0.2,0.7,0.4,1,0.6
			s0.5,0.5,0.6,0.8s0.2,0.7,0.2,1.1c0,0.5-0.1,0.9-0.3,1.2c-0.2,0.4-0.4,0.7-0.7,0.9c-0.3,0.3-0.7,0.4-1.1,0.6
			C590.4,400.3,589.9,400.3,589.4,400.3L589.4,400.3z M598.2,400.4c-0.6,0-1.1-0.1-1.5-0.3c-0.5-0.2-0.9-0.5-1.2-0.8
			s-0.6-0.8-0.8-1.2c-0.2-0.5-0.3-1-0.3-1.5s0.1-1,0.3-1.5s0.5-0.9,0.8-1.2c0.3-0.3,0.8-0.6,1.2-0.8c0.5-0.2,1-0.3,1.5-0.3
			c0.7,0,1.3,0.1,1.7,0.3c0.5,0.2,0.9,0.5,1.2,0.9l-1,1.1c-0.3-0.3-0.5-0.5-0.8-0.7s-0.7-0.3-1.1-0.3c-0.3,0-0.6,0.1-0.9,0.2
			c-0.3,0.1-0.5,0.3-0.7,0.5s-0.3,0.5-0.4,0.7c-0.1,0.3-0.2,0.6-0.2,0.9s0.1,0.6,0.2,0.9c0.1,0.3,0.3,0.5,0.5,0.8
			c0.2,0.2,0.4,0.4,0.7,0.5s0.6,0.2,0.9,0.2c0.4,0,0.8-0.1,1.1-0.3c0.3-0.2,0.6-0.4,0.9-0.7l1,1c-0.4,0.4-0.8,0.7-1.2,1
			C599.5,400.2,598.9,400.4,598.2,400.4L598.2,400.4z M602.7,390h1.7v4c0.1-0.2,0.3-0.3,0.4-0.5c0.1-0.2,0.3-0.3,0.5-0.4l0.6-0.3
			c0.2-0.1,0.5-0.1,0.8-0.1c0.8,0,1.5,0.3,1.9,0.8c0.5,0.5,0.7,1.2,0.7,2.1v4.7h-1.7V396c0-0.6-0.1-1-0.4-1.3
			c-0.3-0.3-0.7-0.5-1.2-0.5s-0.9,0.2-1.2,0.5s-0.5,0.8-0.5,1.3v4.2h-1.7V390H602.7z M614.9,400.4c-0.6,0-1.1-0.1-1.6-0.3
			c-0.5-0.2-0.9-0.5-1.2-0.8c-0.4-0.3-0.6-0.8-0.8-1.2c-0.2-0.5-0.3-1-0.3-1.5s0.1-1,0.3-1.5s0.5-0.9,0.8-1.2
			c0.3-0.3,0.8-0.6,1.2-0.8c0.5-0.2,1-0.3,1.6-0.3s1.1,0.1,1.6,0.3c0.5,0.2,0.9,0.5,1.2,0.8c0.4,0.3,0.6,0.8,0.8,1.2
			c0.2,0.5,0.3,1,0.3,1.5s-0.1,1-0.3,1.5s-0.5,0.9-0.8,1.2c-0.3,0.3-0.8,0.6-1.3,0.8C616,400.3,615.5,400.4,614.9,400.4z M615,398.9
			c0.3,0,0.7-0.1,0.9-0.2c0.3-0.1,0.5-0.3,0.7-0.5s0.3-0.5,0.4-0.7c0.1-0.3,0.2-0.6,0.2-0.9s-0.1-0.6-0.2-0.9
			c-0.1-0.3-0.3-0.5-0.5-0.8c-0.2-0.2-0.4-0.4-0.7-0.5s-0.6-0.2-0.9-0.2c-0.3,0-0.6,0.1-0.9,0.2c-0.3,0.1-0.5,0.3-0.7,0.5
			s-0.3,0.5-0.4,0.7c-0.1,0.3-0.2,0.6-0.2,0.9s0.1,0.6,0.2,0.9c0.1,0.3,0.3,0.5,0.5,0.8c0.2,0.2,0.4,0.4,0.7,0.5
			C614.3,398.8,614.6,398.9,615,398.9z M624.1,400.4c-0.6,0-1.1-0.1-1.6-0.3c-0.5-0.2-0.9-0.5-1.2-0.8c-0.4-0.3-0.6-0.8-0.8-1.2
			c-0.2-0.5-0.3-1-0.3-1.5s0.1-1,0.3-1.5s0.5-0.9,0.8-1.2c0.3-0.3,0.8-0.6,1.2-0.8c0.5-0.2,1-0.3,1.6-0.3s1.1,0.1,1.6,0.3
			c0.5,0.2,0.9,0.5,1.2,0.8c0.4,0.3,0.6,0.8,0.8,1.2c0.2,0.4,0.3,1,0.3,1.5s-0.1,1-0.3,1.5s-0.5,0.9-0.8,1.2
			c-0.3,0.3-0.8,0.6-1.3,0.8C625.2,400.3,624.7,400.4,624.1,400.4z M624.2,398.9c0.3,0,0.7-0.1,0.9-0.2c0.3-0.1,0.5-0.3,0.7-0.5
			s0.3-0.5,0.4-0.7c0.1-0.3,0.2-0.6,0.2-0.9s-0.1-0.6-0.2-0.9c-0.1-0.3-0.3-0.5-0.5-0.8c-0.2-0.2-0.4-0.4-0.7-0.5s-0.6-0.2-0.9-0.2
			c-0.3,0-0.6,0.1-0.9,0.2c-0.3,0.1-0.5,0.3-0.7,0.5s-0.3,0.5-0.4,0.7c-0.1,0.3-0.2,0.6-0.2,0.9s0.1,0.6,0.2,0.9
			c0.1,0.3,0.3,0.5,0.5,0.8c0.2,0.2,0.4,0.4,0.7,0.5C623.5,398.8,623.8,398.9,624.2,398.9z M629.9,390h1.7v10.2h-1.7V390z
			 M640.9,389.4c0.6,0,1.1,0.1,1.6,0.4s0.9,0.7,1.2,1.2s0.4,1.1,0.4,1.6c0,0.6-0.1,1.1-0.4,1.6c-0.3,0.5-0.7,0.9-1.2,1.2
			c-0.5,0.3-1.1,0.4-1.6,0.4c-0.6,0-1.1-0.1-1.6-0.4s-0.9-0.7-1.2-1.2s-0.4-1.1-0.4-1.6c0-0.6,0.1-1.1,0.4-1.6
			c0.3-0.5,0.7-0.9,1.2-1.2C639.8,389.5,640.3,389.4,640.9,389.4z M640.9,389.9c-0.5,0-0.9,0.1-1.3,0.4c-0.4,0.2-0.8,0.6-1,1
			s-0.4,0.9-0.4,1.4s0.1,0.9,0.4,1.4c0.2,0.4,0.6,0.8,1,1s0.9,0.4,1.4,0.4s0.9-0.1,1.4-0.4c0.4-0.2,0.8-0.6,1-1s0.4-0.9,0.4-1.4
			s-0.1-0.9-0.4-1.4c-0.2-0.4-0.6-0.8-1-1C641.8,390.1,641.3,389.9,640.9,389.9L640.9,389.9z M639.4,394.5V391h1.2
			c0.4,0,0.7,0,0.9,0.1s0.3,0.2,0.4,0.3c0.1,0.2,0.2,0.3,0.2,0.5c0,0.3-0.1,0.5-0.3,0.7s-0.4,0.3-0.7,0.3c0.1,0.1,0.2,0.1,0.3,0.2
			s0.3,0.4,0.5,0.7l0.4,0.7h-0.7l-0.3-0.6c-0.2-0.4-0.4-0.7-0.6-0.8c-0.1-0.1-0.3-0.1-0.5-0.1H640v1.5L639.4,394.5L639.4,394.5z
			 M640,392.5h0.7c0.3,0,0.6,0,0.7-0.1c0.1-0.1,0.2-0.2,0.2-0.4c0-0.1,0-0.2-0.1-0.3l-0.2-0.2c-0.1,0-0.3-0.1-0.6-0.1H640L640,392.5
			L640,392.5z"/>
	</g>
</g>
</svg>
