<svg xmlns="http://www.w3.org/2000/svg" width="30" height="20.8" viewBox="0 0 30 20.8">
  <defs>
    <style>
      .cls-1 {
        fill: #607b96;
      }
    </style>
  </defs>
  <g id="Layer_1-2" data-name="Layer 1">
    <g>
      <polygon class="cls-1" points="15.73 0 1.41 6.02 15.63 12.13 30 6.12 15.73 0"/>
      <path class="cls-1" d="m15.63,13.14l-7.38-3.19v4.55c.53.64,1.23,1.24,2.04,1.76,3.12,2.01,7.11,2.14,10.33.31.95-.54,1.79-1.22,2.39-2.07v-4.55l-7.38,3.19Z"/>
      <g>
        <polygon class="cls-1" points="2.01 12.75 1.57 12.75 1.41 6.02 2.17 6.01 2.01 12.75"/>
        <circle class="cls-1" cx="1.82" cy="13.56" r="1.14"/>
        <path class="cls-1" d="m3.65,20.8H0c-.03-1.89.36-5.06,1.12-6.58h1.41c.74,1.73,1.06,4,1.12,6.58Z"/>
      </g>
    </g>
  </g>
</svg>
