<?xml version="1.0" encoding="utf-8"?>
<!-- Generator: Adobe Illustrator 16.0.4, SVG Export Plug-In . SVG Version: 6.00 Build 0)  -->
<!DOCTYPE svg PUBLIC "-//W3C//DTD SVG 1.1//EN" "http://www.w3.org/Graphics/SVG/1.1/DTD/svg11.dtd">
<svg version="1.1" id="Layer_1" xmlns="http://www.w3.org/2000/svg" xmlns:xlink="http://www.w3.org/1999/xlink" x="0px" y="0px"
	 width="378px" height="87px" viewBox="21.5 97.5 378 87" enable-background="new 21.5 97.5 378 87" xml:space="preserve">
<g>
	<g id="A36b5H.tif">
		<g>
			<path fill="#FFFFFF" d="M144.036,142.099c2.357-5.994,4.615-11.566,6.715-17.196c0.537-1.443,1.201-1.994,2.749-1.863
				c2.685,0.226,5.382,0.155,8.067-0.133c0.374-0.04,0.856-0.157,0.995,0.307c0.161,0.545-0.367,0.539-0.712,0.657
				c-1.467,0.503-2.136,1.597-2.132,3.088c0.016,7.119-0.009,14.238,0.132,21.355c0.041,2.09,0.326,4.311,2.832,5.17
				c0.263,0.09,0.465,0.213,0.41,0.529c-0.057,0.322-0.304,0.344-0.571,0.342c-4.773-0.002-9.546-0.002-14.47-0.203
				c3.967-1.781,3.423-5.258,3.457-8.445c0.059-5.586,0.017-11.172-0.246-16.854c-1.041,2.613-2.094,5.223-3.121,7.842
				c-2.219,5.656-4.42,11.32-6.649,16.971c-0.191,0.484-0.101,1.336-0.826,1.311c-0.674-0.021-0.656-0.867-0.882-1.357
				c-3.769-8.201-7.507-16.414-11.277-24.678c-0.737,0.448-0.404,1.01-0.398,1.436c0.097,5.32-0.328,10.653,0.366,15.958
				c0.386,2.951,1.165,5.689,4.208,7.068c0.277,0.127,0.656,0.234,0.5,0.66c-0.14,0.391-0.492,0.291-0.814,0.291
				c-3.339-0.012-6.676-0.002-10.016-0.01c-0.292,0-0.658,0.158-0.812-0.266c-0.11-0.301,0.062-0.469,0.305-0.6
				c3.521-1.896,4.022-5.371,4.208-8.756c0.279-5.099,0.177-10.219,0.201-15.33c0.012-2.546-0.487-4.862-3.395-5.929
				c1.771-0.625,3.404-0.394,5-0.305c2.091,0.116,4.611-0.943,6.15,0.29c1.503,1.205,2.001,3.644,2.992,5.513
				C139.27,133.241,141.571,137.5,144.036,142.099z"/>
			<path fill="#FFFFFF" d="M298.652,143.091c0.539,1.485,0.961,3.028,1.638,4.45c2.453,5.143,8.65,7.385,13.88,5.105
				c2.257-0.982,3.52-2.996,3.529-5.477c0.005-1.732-0.74-2.913-2.295-3.663c-2.76-1.326-5.803-1.518-8.709-2.261
				c-1.051-0.269-2.124-0.489-3.137-0.867c-4.13-1.546-6.269-4.308-6.3-8.043c-0.03-3.653,2.251-6.965,6.133-8.508
				c6.623-2.633,13.191-1.778,19.698,0.568c0.646,0.232,0.947,0.561,0.727,1.285c-0.617,2.017-1.203,4.043-1.797,6.066
				c-0.093,0.313-0.168,0.675-0.542,0.707c-0.515,0.047-0.543-0.401-0.66-0.762c-0.489-1.527-1.032-3.037-2.024-4.327
				c-2.646-3.439-7.917-4.338-11.575-1.961c-1.625,1.055-2.576,2.521-2.312,4.518c0.252,1.92,1.509,3.02,3.291,3.591
				c3.24,1.041,6.67,1.185,9.935,2.171c3.858,1.166,6.8,3.182,7.209,7.488c0.404,4.25-1.575,7.407-5.124,9.62
				c-4.027,2.51-8.527,2.529-13.042,2.326c-3.614-0.162-7.085-1.037-10.432-2.398c-0.556-0.227-1.336-0.35-1.058-1.283
				c0.834-2.791,1.676-5.578,2.515-8.368C298.351,143.078,298.501,143.083,298.652,143.091z"/>
			<path fill="#FFFFFF" d="M253.717,132.533c2.234-0.383,4.486-0.698,6.702-1.176c1.197-0.259,1.158,0.147,1.145,1.146
				c-0.059,4.422-0.066,8.85,0.071,13.268c0.091,2.941,0.504,3.531,2.731,5.297c-2.581,0.324-4.907,0.184-7.172-0.045
				c-1.09-0.109-0.465-1.852-1.295-2.658c-2.416,3.523-5.878,4.01-9.544,2.893c-4.131-1.26-4.594-4.943-4.804-8.547
				c-0.125-2.162,0.009-4.34-0.033-6.51c-0.021-1.06,0.097-2.168-1.025-2.926c-0.584-0.396-0.429-0.825,0.351-0.953
				c1.83-0.304,3.659-0.628,5.478-1.004c1.013-0.209,0.82,0.463,0.822,0.999c0.007,3.145,0.011,6.29-0.002,9.434
				c-0.006,1.613,0.094,3.206,0.581,4.756c0.425,1.338,1.083,2.488,2.602,2.779c1.693,0.324,3.04-0.342,4.021-1.686
				c0.887-1.219,1.317-2.645,1.362-4.141c0.07-2.369,0.043-4.743,0.092-7.113c0.033-1.634-0.05-3.162-2.397-3.371
				C253.507,132.827,253.61,132.681,253.717,132.533z"/>
			<path fill="#FFFFFF" d="M351.403,148.471c-3.051,3.775-8.741,4.318-12.222,1.275c-2.912-2.545-2.479-6.798,0.882-8.708
				c2.219-1.258,4.589-1.833,7.147-1.805c1.052,0.011,2.106-0.29,3.162-0.428c0.409-0.053,0.473-0.32,0.55-0.651
				c0.49-2.083-1.052-5.215-2.959-5.979c-2.077-0.83-4.429,0.048-5.712,2.28c-0.72,1.249-1.227,2.622-1.949,4.198
				c-1.075-1.847-1.357-3.738-1.953-5.506c-0.206-0.613,0.306-0.762,0.719-0.927c4.286-1.712,8.69-2.231,13.139-0.859
				c3.021,0.932,4.39,2.999,4.494,6.214c0.078,2.431,0.084,4.865,0.134,7.297c0.047,2.303,0.067,4.621,2.896,6.117
				c-2.522,0.438-4.557,0.229-6.543,0.084C351.935,150.98,352.13,149.354,351.403,148.471z M350.921,142.585
				c-0.004-2.762-0.392-3.059-3.035-2.321c-3.27,0.914-4.875,3.993-3.716,7.21c0.45,1.252,1.169,2.293,2.683,2.369
				c1.529,0.076,2.55-0.703,3.147-2.035C350.74,146.152,350.92,144.38,350.921,142.585z"/>
			<path fill="#FFFFFF" d="M227.852,130.669c9.72-0.141,13.569,8.82,10.048,15.593c-1.499,2.885-4.072,4.324-7.122,5.07
				c-4.953,1.215-10.462-0.6-12.925-4.275c-4.399-6.563-0.346-15.354,7.503-16.249C226.181,130.714,227.019,130.714,227.852,130.669
				z M232.795,141.126c0.062-2.254-0.173-4.349-1.053-6.317c-0.758-1.697-1.964-2.815-3.945-2.875
				c-2.074-0.063-3.47,1.016-4.179,2.803c-1.616,4.08-1.588,8.269-0.19,12.389c0.781,2.305,2.419,3.328,4.468,3.234
				c1.843-0.084,3.413-1.367,4.13-3.479C232.672,144.984,232.881,143.01,232.795,141.126z"/>
			<path fill="#FFFFFF" d="M177.554,143.197c0.395,1.12,0.724,2.27,1.196,3.358c1.414,3.246,4.623,4.666,7.521,3.387
				c1.419-0.627,2.281-1.707,2.299-3.254c0.02-1.6-1.078-2.373-2.479-2.782c-1.904-0.558-3.835-1.032-5.714-1.668
				c-2.107-0.71-3.78-1.881-3.982-4.397c-0.208-2.596,0.838-4.544,3.084-5.709c4.411-2.288,8.915-1.738,13.401-0.158
				c0.59,0.208,0.755,0.642,0.541,1.228c-0.539,1.482-1.075,2.966-1.673,4.616c-0.911-0.622-0.855-1.552-1.235-2.224
				c-1.195-2.118-2.666-3.792-5.361-3.693c-1.789,0.066-3.325,1.406-3.45,2.999c-0.145,1.856,0.984,2.61,2.587,2.999
				c2.049,0.495,4.104,0.978,6.12,1.593c2.226,0.681,3.887,1.989,4.079,4.533c0.2,2.68-0.829,4.752-3.201,6.069
				c-3.495,1.941-7.259,1.844-11.039,1.287c-1.512-0.223-2.996-0.656-4.39-1.342c-0.545-0.268-1.014-0.406-0.687-1.246
				c0.721-1.834,1.312-3.719,1.957-5.585C177.267,143.205,177.41,143.201,177.554,143.197z"/>
			<path fill="#FFFFFF" d="M212.068,137.875c-0.491-1.059-0.846-1.921-1.28-2.743c-1.214-2.304-3.492-3.595-5.627-3.16
				c-1.677,0.342-2.792,1.34-2.904,3.107c-0.104,1.618,0.91,2.389,2.389,2.745c2.051,0.493,4.094,1.022,6.124,1.599
				c2.406,0.684,4.162,2.092,4.312,4.754c0.15,2.657-0.969,4.825-3.387,5.981c-5.134,2.459-10.305,1.92-15.423-0.182
				c-0.372-0.154-0.799-0.412-0.622-0.826c0.739-1.729,0.875-3.725,2.144-5.315c1.063,1.02,1.227,2.313,1.82,3.385
				c1.596,2.873,4.825,4.006,7.505,2.549c1.26-0.686,2.019-1.688,1.934-3.252c-0.08-1.482-0.982-2.16-2.218-2.543
				c-2.013-0.62-4.074-1.107-6.064-1.797c-1.955-0.677-3.553-1.806-3.817-4.11c-0.294-2.56,0.645-4.614,2.873-5.824
				c4.504-2.442,9.136-1.845,13.746-0.234c0.416,0.144,0.612,0.458,0.449,0.901C213.443,134.494,213.156,136.2,212.068,137.875z"/>
			<path fill="#FFFFFF" d="M389.466,142.77c1.234,0.486,1.148,1.221,0.834,2.117c-1.815,5.152-6.614,7.744-12.348,6.627
				c-5.314-1.033-8.866-5.609-8.489-10.94c0.347-4.875,3.015-8.491,7.505-9.559c4.338-1.032,9.207-0.34,11.676,3.25
				c0.146,0.211,0.337,0.4,0.442,0.628c0.556,1.214,1.618,2.603,1.049,3.728c-0.397,0.786-2.125,0.228-3.256,0.242
				c-3.206,0.042-6.416,0.059-9.622,0.002c-0.989-0.019-1.359,0.243-1.355,1.271c0.008,2.075,0.202,4.109,1.111,5.99
				c2.098,4.34,7.433,4.879,10.401,1.084C388.413,145.934,389.021,144.463,389.466,142.77z M379.866,137.326
				c0,0.003,0,0.006,0,0.009c0.958,0,1.919-0.019,2.878,0.007c0.585,0.018,0.896-0.073,0.905-0.806
				c0.029-1.945-1.355-4.202-2.893-4.532c-1.689-0.363-3.307,0.79-4.119,2.942c-0.85,2.248-0.758,2.374,1.693,2.381
				C378.843,137.329,379.354,137.326,379.866,137.326z"/>
			<path fill="#FFFFFF" d="M264.972,151.117c1.756-1.145,2.173-2.805,2.195-4.6c0.048-3.658-0.004-7.319,0.033-10.979
				c0.017-1.475-0.778-2.285-2.039-2.961c2.29-0.435,4.584-0.852,6.867-1.316c0.763-0.155,0.877,0.196,0.859,0.817
				c-0.023,0.819-0.006,1.638-0.006,2.956c0.634-0.854,0.959-1.356,1.348-1.806c1.064-1.234,2.243-2.278,3.961-2.508
				c1.977-0.265,2.031-0.218,1.383,1.667c-0.27,0.787-0.552,1.573-0.784,2.37c-0.381,1.305-0.429,2.774-2.572,1.572
				c-1.243-0.697-2.93,0.935-3.146,3.065c-0.219,2.161-0.168,4.353-0.161,6.53c0.006,1.998,0.183,3.959,2.871,5.193
				C271.75,151.117,268.36,151.117,264.972,151.117z"/>
			<path fill="#FFFFFF" d="M368.899,151.143c-2.077,0-4.152,0.01-6.228-0.004c-0.748-0.006-1.124-0.482-1.365-1.141
				c-0.379-1.045-0.44-2.123-0.439-3.215c0.002-4.035-0.012-8.071,0.011-12.109c0.004-0.883,0.101-1.722-1.223-1.51
				c-0.287,0.046-0.733,0.095-0.771-0.328c-0.034-0.354,0.021-0.782,0.419-1.005c2.675-1.501,4.885-3.477,6.416-6.17
				c0.093-0.164,0.429-0.286,0.639-0.268c0.371,0.031,0.238,0.386,0.234,0.614c-0.025,1.406-0.025,2.816-0.117,4.22
				c-0.064,1.006,0.281,1.396,1.306,1.26c0.626-0.083,1.278-0.068,1.91,0c0.391,0.043,1.201-0.359,0.98,0.641
				c-0.118,0.536-0.133,1.228-1.017,1.052c-0.062-0.013-0.127-0.018-0.19-0.014c-3,0.207-3.017,0.207-2.987,3.232
				c0.031,3.375,0.077,6.748,0.154,10.12C366.671,148.33,367.188,149.924,368.899,151.143z"/>
			<path fill="#FFFFFF" d="M335.851,151.143c-2.093,0-4.187,0.055-6.277-0.02c-1.163-0.045-1.391-1.123-1.465-1.959
				c-0.192-2.229-0.269-4.471-0.294-6.709c-0.027-2.681,0.018-5.364,0.088-8.045c0.021-0.859-0.109-1.363-1.13-1.245
				c-0.297,0.034-0.849,0.252-0.922-0.316c-0.046-0.359,0.082-0.775,0.462-0.994c2.661-1.531,4.863-3.532,6.401-6.22
				c0.137-0.241,0.414-0.384,0.633-0.191c0.156,0.139,0.24,0.438,0.24,0.664c-0.003,0.961,0.036,1.935-0.099,2.882
				c-0.27,1.912,0.282,2.915,2.396,2.489c0.248-0.05,0.526-0.054,0.766,0.009c0.396,0.104,1.181-0.422,1.071,0.559
				c-0.062,0.571-0.207,1.18-1.021,1.125c-0.127-0.009-0.256-0.004-0.383,0.004c-2.806,0.163-2.815,0.163-2.808,2.951
				c0.011,3.336-0.018,6.676,0.078,10.011C333.642,148.02,333.988,149.855,335.851,151.143z"/>
			<path fill="#FFFFFF" d="M290.327,151.176c-3.381,0-6.762,0-10.73,0c3.276-1.754,2.76-4.471,2.785-7.009
				c0.024-2.548-0.016-5.096,0.044-7.643c0.041-1.663-0.086-3.171-1.99-3.959c2.352-0.43,4.705-0.868,7.061-1.287
				c0.961-0.171,0.615,0.529,0.615,0.979c-0.005,4.476-0.045,8.954-0.006,13.429C288.123,147.738,288.296,149.789,290.327,151.176z"
				/>
			<path fill="#FFFFFF" d="M163.376,132.657c2.789-0.522,5.083-0.96,7.379-1.378c1.197-0.218,0.783,0.676,0.784,1.219
				c0.006,4.55-0.048,9.102,0.003,13.65c0.03,2.766,0.433,3.451,2.549,4.889c-3.679,0-7.086,0-10.852,0
				c2.568-1.371,2.571-3.592,2.561-5.832c-0.019-3.145,0.011-6.289-0.015-9.435C165.771,133.932,165.557,133.652,163.376,132.657z"
				/>
			<path fill="#FFFFFF" d="M285.239,130.116c-1.826,0.021-3.308-1.028-3.385-2.401c-0.079-1.377,1.388-2.64,3.155-2.714
				c1.653-0.07,3.288,1.141,3.368,2.495C288.465,128.951,287.096,130.093,285.239,130.116z"/>
			<path fill="#FFFFFF" d="M168.235,130.139c-1.855,0.035-3.243-1.004-3.278-2.452c-0.035-1.511,1.239-2.595,3.119-2.652
				c1.756-0.055,3.278,1.096,3.297,2.491C171.395,129.034,170.108,130.104,168.235,130.139z"/>
		</g>
	</g>
	<g id="v3CIdB.tif">
		<g>
			<path fill="#040404" d="M64.506,104.636c5.042,0,10.085,0,15.128,0c0.184,0.275,0.463,0.117,0.691,0.132
				c3.506,0.232,7.046,0.31,10.003,2.636c0.519,0.407,1.021,0.277,1.479-0.182c2.274-2.277,5.029-2.651,8.016-1.941
				c3.594,0.854,6.471,2.951,9.127,5.404c1.096,1.012,1.81,2.254,2.218,3.689c0.613,2.162,0.879,4.385,1.254,6.591
				c0.312,1.829,0.074,3.532-0.864,5.14c-0.29,0.496-0.494,1.042-0.784,1.54c-0.198,0.34-0.134,0.549,0.117,0.836
				c0.868,0.989,1.821,1.912,2.494,3.056c0.7,1.192,0.481,1.857-0.764,2.411c-1.394,0.619-1.417,0.656-1.358,2.174
				c0.009,0.231,0.011,0.462,0.04,0.692c0.541,4.275,0.629,8.572,0.604,12.875c-0.003,0.596,0.257,1.373-0.112,1.738
				c-0.366,0.363-1.144,0.135-1.734,0.102c-0.976-0.055-1.62,0.383-2.109,1.172c-0.523,0.846-0.968,1.73-1.4,2.621
				c-1.859,3.838-3.572,7.746-5.696,11.453c-0.367,0.639-0.742,1.273-1.294,1.787c-0.482,0.447-0.969,0.574-1.567,0.248
				c-0.83-0.453-1.682-0.863-2.508-1.322c-0.306-0.168-0.568-0.205-0.903-0.084c-2.078,0.76-4.173,1.467-6.244,2.246
				c-1.984,0.744-4.043,1.412-5.743,2.688c-1.298,0.975-2.618,1.373-4.182,1.242c-0.745-0.061-1.487,0.041-2.136,0.451
				c-1.479,0.936-2.716,2.164-4.002,3.332c-0.139,0-0.276,0-0.416,0c-0.608-0.771-1.461-1.283-2.131-1.992
				c-1.286-1.359-2.808-2.021-4.722-1.791c-0.98,0.115-1.939-0.148-2.718-0.818c-0.656-0.566-1.404-0.971-2.172-1.342
				c-3.413-1.648-7.032-2.764-10.58-4.061c-0.282-0.104-0.479-0.014-0.704,0.107c-0.856,0.455-1.717,0.895-2.573,1.35
				c-0.565,0.303-1.044,0.201-1.51-0.225c-0.522-0.479-0.889-1.059-1.236-1.66c-1.85-3.195-3.384-6.553-4.964-9.885
				c-0.709-1.5-1.392-3.018-2.281-4.424c-0.467-0.742-1.096-1.16-2.012-1.088c-0.482,0.037-0.97-0.016-1.456,0.01
				c-0.328,0.014-0.444-0.088-0.443-0.428c0.007-3.029-0.032-6.061,0.163-9.083c0.138-2.122,0.354-4.238,0.493-6.359
				c0.064-0.986-0.115-1.228-1.011-1.571c-0.586-0.227-1.106-0.523-1.504-1.016c0-0.323,0-0.648,0-0.972
				c0.516-0.754,0.998-1.53,1.613-2.215c0.537-0.599,1.422-1.145,1.47-1.849c0.048-0.696-0.591-1.455-0.976-2.16
				c-0.742-1.362-1.05-2.796-0.834-4.338c0.275-1.966,0.57-3.927,0.989-5.867c0.327-1.519,0.741-3.037,1.831-4.201
				c2.626-2.804,5.66-5.037,9.407-6.091c3.143-0.883,6.094-0.581,8.529,1.88c0.543,0.548,1.075,0.403,1.608,0.021
				c1.172-0.839,2.418-1.509,3.841-1.831c1.946-0.438,3.924-0.571,5.907-0.693C64.091,104.758,64.349,104.899,64.506,104.636z
				 M109.992,123.526c-0.165-2-0.247-3.361-0.396-4.716c-0.274-2.5-0.903-4.869-2.771-6.71c-1.625-1.599-3.441-2.938-5.53-3.878
				c-2.669-1.203-5.246-1.044-7.717,0.546c-0.777,0.5-1.55,1.005-2.304,1.538c-0.313,0.221-0.526,0.229-0.836-0.021
				c-1.008-0.808-2.016-1.611-3.271-2.041c-3.187-1.094-6.47-1.493-9.822-1.419c-1.63,0.036-3.228,0.199-4.606,1.223
				c-0.503,0.373-1.02,0.174-1.475-0.156c-0.75-0.545-1.598-0.798-2.505-0.919c-2.033-0.271-4.065-0.211-6.088,0.044
				c-3.203,0.403-6.366,0.967-8.864,3.287c-0.273,0.254-0.485,0.226-0.777,0.021c-0.792-0.558-1.599-1.099-2.42-1.613
				c-2.292-1.434-4.705-1.691-7.215-0.657c-2.474,1.02-4.585,2.567-6.381,4.541c-0.871,0.955-1.449,2.088-1.778,3.33
				c-0.702,2.657-0.86,5.377-0.843,8.11c0.004,0.624,0.253,1.171,0.7,1.611c0.529,0.518,1.052,1.043,1.615,1.522
				c0.344,0.292,0.365,0.469,0.032,0.8c-1.033,1.027-2.044,2.078-3.026,3.151c-0.524,0.571-0.442,0.769,0.281,0.99
				c1.313,0.402,1.487,0.65,1.327,1.964c-0.568,4.663-0.78,9.354-1.074,14.036c-0.062,0.979-0.031,1.018,0.936,0.74
				c0.81-0.232,1.406-0.029,1.847,0.662c0.333,0.527,0.681,1.047,0.976,1.592c2.003,3.717,3.755,7.559,5.667,11.318
				c0.532,1.047,1.024,2.121,1.71,3.082c0.47,0.658,0.719,0.715,1.372,0.289c0.593-0.389,1.209-0.508,1.91-0.406
				c2.159,0.316,4.217,1.004,6.275,1.676c2.997,0.977,6.074,1.77,8.719,3.605c0.239,0.166,0.55,0.234,0.835,0.324
				c0.873,0.271,1.776,0.266,2.679,0.275c1.305,0.012,2.448,0.402,3.333,1.418c0.242,0.275,0.523,0.523,0.799,0.768
				c0.821,0.729,0.852,0.729,1.693-0.02c0.31-0.277,0.612-0.568,0.896-0.869c0.661-0.697,1.452-1.139,2.416-1.217
				c0.599-0.053,1.199-0.062,1.8-0.094c1.049-0.059,2.079-0.213,2.944-0.865c0.467-0.352,0.961-0.639,1.491-0.867
				c4.015-1.723,8.173-3.018,12.416-4.037c0.83-0.201,1.68-0.279,2.476,0.246c0.762,0.504,0.998,0.445,1.514-0.312
				c0.298-0.438,0.567-0.896,0.807-1.371c0.89-1.744,1.762-3.498,2.64-5.252c1.458-2.904,2.78-5.879,4.44-8.682
				c0.855-1.439,1.112-1.545,2.688-1.152c0.536,0.133,0.56-0.025,0.53-0.471c-0.305-4.822-0.529-9.65-1.104-14.451
				c-0.153-1.289,0.03-1.546,1.292-1.925c0.77-0.232,0.846-0.416,0.298-1.022c-0.821-0.909-1.685-1.779-2.536-2.661
				c-0.847-0.877-0.873-0.903,0.06-1.695C109.265,125.719,110.255,124.633,109.992,123.526z"/>
			<path fill="#FDFDFD" d="M109.992,123.526c0.263,1.107-0.728,2.193-1.926,3.21c-0.933,0.792-0.907,0.818-0.06,1.695
				c0.851,0.881,1.715,1.753,2.536,2.661c0.548,0.607,0.472,0.792-0.298,1.022c-1.261,0.378-1.446,0.636-1.292,1.925
				c0.574,4.801,0.799,9.629,1.104,14.45c0.028,0.445,0.006,0.604-0.53,0.471c-1.575-0.391-1.833-0.285-2.688,1.154
				c-1.661,2.801-2.983,5.775-4.44,8.68c-0.877,1.754-1.75,3.508-2.64,5.254c-0.24,0.473-0.509,0.932-0.807,1.369
				c-0.516,0.758-0.751,0.816-1.514,0.312c-0.794-0.525-1.644-0.445-2.476-0.246c-4.243,1.02-8.401,2.314-12.416,4.039
				c-0.529,0.229-1.024,0.516-1.491,0.867c-0.866,0.65-1.895,0.807-2.944,0.863c-0.601,0.031-1.201,0.041-1.8,0.094
				c-0.964,0.078-1.755,0.521-2.416,1.217c-0.284,0.303-0.586,0.592-0.896,0.869c-0.842,0.75-0.872,0.75-1.693,0.021
				c-0.276-0.244-0.557-0.492-0.799-0.77c-0.886-1.012-2.029-1.404-3.333-1.416c-0.903-0.012-1.805-0.006-2.679-0.277
				c-0.285-0.088-0.596-0.156-0.835-0.322c-2.646-1.836-5.722-2.629-8.719-3.605c-2.058-0.672-4.117-1.361-6.275-1.676
				c-0.699-0.102-1.316,0.018-1.91,0.406c-0.653,0.426-0.902,0.369-1.372-0.289c-0.686-0.961-1.178-2.035-1.71-3.084
				c-1.912-3.76-3.663-7.6-5.667-11.316c-0.294-0.545-0.642-1.066-0.976-1.592c-0.442-0.693-1.038-0.895-1.847-0.664
				c-0.967,0.279-0.997,0.238-0.936-0.74c0.294-4.682,0.505-9.373,1.074-14.035c0.16-1.313-0.014-1.561-1.327-1.964
				c-0.724-0.221-0.805-0.419-0.281-0.99c0.982-1.074,1.994-2.125,3.027-3.152c0.333-0.331,0.312-0.508-0.032-0.8
				c-0.562-0.479-1.086-1.004-1.615-1.522c-0.447-0.439-0.697-0.987-0.7-1.611c-0.017-2.733,0.141-5.453,0.843-8.109
				c0.329-1.243,0.907-2.375,1.778-3.33c1.797-1.973,3.908-3.522,6.381-4.542c2.51-1.036,4.924-0.778,7.215,0.657
				c0.822,0.514,1.628,1.055,2.421,1.613c0.292,0.206,0.503,0.234,0.776-0.021c2.498-2.32,5.66-2.883,8.864-3.287
				c2.023-0.255,4.056-0.315,6.088-0.044c0.908,0.121,1.755,0.374,2.505,0.919c0.455,0.33,0.972,0.53,1.475,0.156
				c1.378-1.023,2.976-1.187,4.606-1.223c3.353-0.072,6.635,0.326,9.822,1.419c1.254,0.43,2.263,1.233,3.271,2.042
				c0.311,0.25,0.524,0.242,0.836,0.021c0.753-0.533,1.527-1.038,2.304-1.539c2.471-1.59,5.048-1.749,7.717-0.546
				c2.09,0.941,3.905,2.279,5.53,3.878c1.868,1.842,2.497,4.21,2.771,6.71C109.745,120.165,109.828,121.527,109.992,123.526z
				 M97.756,112.853c1.769,1.307,3.625,2.446,5.154,4.015c0.389,0.398,0.739,0.829,0.993,1.327c0.179,0.352,0.316,0.722,0.28,1.128
				c-0.057,0.625-0.441,1.057-0.913,1.03c-0.497-0.028-0.821-0.457-0.724-1.128c0.115-0.803-0.211-1.39-0.744-1.914
				c-0.479-0.473-1.019-0.871-1.589-1.223c-0.264-0.161-0.55-0.449-0.875-0.245c-0.347,0.216-0.244,0.618-0.213,0.956
				c0.064,0.713,0.16,1.423,0.224,2.137c0.03,0.333-0.067,0.565-0.478,0.39c-0.162-0.069-0.37-0.232-0.49-0.028
				c-0.135,0.226,0.107,0.374,0.256,0.504c0.611,0.531,1.212,1.074,1.85,1.569c1.804,1.405,3.593,2.836,5.574,3.993
				c1.061,0.617,1.856,0.293,2.276-0.855c0.078-0.215,0.14-0.443,0.171-0.668c0.463-3.25-0.009-6.398-1.063-9.478
				c-0.159-0.464-0.44-0.877-0.819-1.186c-1.739-1.414-3.466-2.848-5.5-3.836c-3.07-1.495-5.665-1.087-8.119,1.273
				c-0.633,0.61-1.255,1.232-1.852,1.877c-0.274,0.297-0.44,0.36-0.75,0.027c-0.617-0.656-1.282-1.27-1.935-1.891
				c-0.971-0.925-2.104-1.598-3.395-1.939c-3.168-0.839-6.402-0.89-9.635-0.595c-1.521,0.139-1.75,0.471-2.064,1.958
				c-0.431,2.044-0.495,4.127-0.682,6.198c-0.09,0.995-0.137,2.003-0.477,3.001c-0.298-0.211-0.286-0.494-0.318-0.721
				c-0.129-0.915-0.237-1.833-0.315-2.754c-0.169-2.025-0.239-4.06-0.696-6.054c-0.194-0.848-0.658-1.341-1.511-1.481
				c-0.25-0.042-0.497-0.108-0.748-0.141c-2.661-0.333-5.299-0.076-7.945,0.239c-2.211,0.265-4.003,1.176-5.395,2.905
				c-0.362,0.449-0.807,0.833-1.163,1.287c-0.298,0.381-0.485,0.316-0.794,0.007c-0.914-0.917-1.871-1.789-2.828-2.661
				c-1.63-1.483-3.474-1.666-5.495-1.123c-2.76,0.741-4.964,2.394-7.038,4.266c-0.795,0.718-1.301,1.598-1.562,2.64
				c-0.415,1.662-0.729,3.342-0.879,5.046c-0.104,1.171-0.18,2.357,0.222,3.502c0.553,1.568,1.481,1.913,2.86,1.023
				c1.829-1.177,3.54-2.517,5.23-3.88c0.647-0.521,1.262-1.082,1.886-1.633c0.119-0.105,0.269-0.24,0.183-0.412
				c-0.101-0.199-0.284-0.092-0.424-0.033c-0.469,0.197-0.527-0.147-0.55-0.445c-0.073-0.917,0.03-1.8,0.667-2.54
				c0.127-0.148,0.365-0.309,0.238-0.517c-0.148-0.244-0.414-0.105-0.634-0.052c-0.822,0.203-1.544,0.611-2.2,1.131
				c-0.845,0.67-1.503,1.445-1.333,2.64c0.021,0.154-0.024,0.324-0.07,0.478c-0.075,0.252-0.211,0.468-0.494,0.527
				c-0.316,0.066-0.53-0.101-0.702-0.336c-0.422-0.571-0.188-1.119,0.123-1.614c1.381-2.198,3.196-3.939,5.531-5.103
				c0.764-0.383,1.01-0.257,1.216,0.595c0.328,1.357,0.366,2.744,0.377,4.133c0.011,1.207-0.481,2.127-1.468,2.819
				c-1.726,1.211-3.279,2.638-4.806,4.085c-1.744,1.654-3.533,3.269-4.99,5.199c-0.317,0.42-0.598,0.833-0.01,1.305
				c0.222,0.179,0.232,0.54,0.241,0.847c0.022,0.786,0.003,1.57-0.083,2.354c-0.344,3.151-0.61,6.309-0.497,9.483
				c0.042,1.201-0.105,2.421,1.151,3.3c0.613,0.43,0.937,1.297,1.339,1.996c1.918,3.32,3.509,6.807,5.271,10.205
				c0.509,0.984,1.005,1.977,1.648,2.885c0.381,0.535,0.822,1.029,1.521,1.109c2.862,0.322,5.582,1.229,8.328,2.025
				c1.993,0.578,3.96,1.26,6.016,1.594c0.767,0.125,0.789,0.08,0.556-0.639c-0.58-1.785-1.521-3.41-2.23-5.135
				c-0.366-0.893-0.922-1.273-1.842-1.471c-2.025-0.439-4.045-0.924-5.967-1.75c-0.929-0.4-1.635-0.982-2.156-1.855
				c-0.96-1.604-1.896-3.223-2.787-4.865c-1.253-2.312-2.456-4.654-3.914-6.85c-0.293-0.444-0.529-1.038-0.992-1.219
				c-0.732-0.287-0.671-0.785-0.619-1.339c0.036-0.392,0.098-0.781,0.18-1.166c0.585-2.729,1.208-5.453,1.757-8.19
				c0.19-0.944,0.581-1.932-0.1-2.872c-0.097-0.132,0.039-0.317,0.127-0.444c0.197-0.283,0.395-0.575,0.636-0.819
				c3.617-3.613,7.635-6.703,12.064-9.255c0.842-0.487,1.638-0.505,2.561-0.119c4.383,1.836,8.646,3.936,12.944,5.958
				c0.441,0.206,0.771,0.202,1.211-0.005c4.257-2,8.478-4.08,12.824-5.888c1.148-0.479,2.102-0.391,3.137,0.214
				c3.79,2.216,7.222,4.9,10.439,7.872c0.629,0.58,1.246,1.177,1.72,1.897c0.132,0.198,0.363,0.434,0.156,0.683
				c-0.445,0.536-0.315,1.141-0.234,1.725c0.308,2.222,0.913,4.382,1.396,6.567c0.293,1.331,0.597,2.658,0.846,3.994
				c0.066,0.358,0.312,0.919-0.294,1.044c-0.472,0.098-0.721,0.386-0.975,0.704c-0.738,0.924-1.333,1.942-1.876,2.987
				c-1.831,3.521-3.754,6.992-5.74,10.43c-0.353,0.611-0.76,0.926-1.455,1.082c-2.314,0.529-4.646,1.002-6.867,1.883
				c-0.469,0.186-0.839,0.445-1.083,0.904c-0.951,1.801-1.756,3.658-2.38,5.596c-0.174,0.541-0.133,0.727,0.491,0.539
				c2.031-0.611,4.072-1.193,6.109-1.789c2.657-0.775,5.288-1.686,8.063-1.932c0.963-0.086,1.612-0.455,2.079-1.246
				c0.27-0.457,0.559-0.906,0.794-1.381c1.295-2.6,2.574-5.211,3.864-7.812c0.869-1.758,1.731-3.52,2.788-5.178
				c0.248-0.391,0.464-0.939,0.89-1.02c0.78-0.146,0.763-0.658,0.784-1.205c0.021-0.578,0.021-1.156,0.02-1.735
				c-0.015-3.653-0.384-7.298-0.313-10.955c0.011-0.555-0.127-1.195,0.169-1.636c0.596-0.89-0.036-1.371-0.468-1.945
				c-0.18-0.24-0.382-0.464-0.586-0.684c-2.745-2.948-5.587-5.792-8.928-8.084c-0.865-0.593-1.455-1.333-1.492-2.435
				C96.563,116.567,96.868,114.681,97.756,112.853z M83.12,127.502c-0.02,0.06-0.04,0.12-0.06,0.18
				c0.273,0.153,0.55,0.301,0.82,0.46c0.434,0.258,1.004,0.475,0.975,1.06c-0.028,0.552-0.614,0.622-1.04,0.771
				c-0.407,0.142-0.44,0.377-0.196,0.674c0.219,0.268,0.452,0.529,0.716,0.75c0.994,0.83,2.002,1.641,3.004,2.461
				c0.877,0.717,1.756,1.437,2.476,2.32c0.238,0.293,0.563,0.589,0.42,1.039c-0.789,2.484-1.303,5.049-2.157,7.514
				c-0.456,1.32-1.287,2.301-2.625,2.76c-1.323,0.451-2.043,1.412-2.507,2.668c-0.609,1.645-1.125,3.32-1.651,4.99
				c-0.927,2.947-1.868,5.891-2.771,8.846c-0.401,1.316-1.181,2.137-2.562,2.41c-1.063,0.211-2.085,0.584-3.054,1.086
				c-0.407,0.211-0.881,0.336-1.267,0.096c-1.378-0.855-2.943-1.047-4.482-1.326c-0.441-0.082-0.656-0.262-0.792-0.699
				c-1.161-3.721-2.338-7.436-3.532-11.145c-0.579-1.801-1.118-3.615-1.927-5.332c-0.324-0.688-0.733-1.295-1.561-1.436
				c-1.499-0.25-2.39-1.172-2.921-2.549c-0.851-2.2-1.392-4.49-2.063-6.744c-0.42-1.413-0.074-2.362,1.139-3.254
				c1.746-1.286,3.451-2.647,5.015-4.162c0.594-0.573,0.537-0.762-0.215-1.024c-0.375-0.132-0.818-0.237-0.884-0.678
				c-0.072-0.486,0.375-0.698,0.706-0.941c0.351-0.258,0.827-0.336,1.162-0.791c-2.723-0.337-5.188-0.048-7.317,1.744
				c-1.173,0.989-2.167,2.146-3.203,3.267c-0.283,0.307-0.568,0.614-0.852,0.921c-0.094-0.188-0.071-0.271-0.028-0.344
				c1.365-2.282,2.958-4.411,4.445-6.61c0.144-0.211,0.317-0.226,0.53-0.234c3.682-0.155,7.292,0.147,10.729,1.63
				c0.868,0.374,1.77,0.667,2.699,0.861c0.644,0.135,1.063-0.098,1.312-0.713c0.263-0.652,0.165-1.144-0.466-1.532
				c-3.499-2.145-7.187-3.877-11.141-4.99c-1.427-0.401-2.826-0.223-4.069,0.751c-2.614,2.05-5.058,4.268-6.97,7.006
				c-3.001,4.295-4.001,8.885-2.151,13.961c1.655,4.539,3.788,8.861,5.732,13.269c0.146,0.33,0.414,0.389,0.697,0.484
				c3.018,1.004,6.032,2.025,9.055,3.014c0.417,0.137,0.625,0.359,0.785,0.756c1.165,2.887,2.358,5.762,3.526,8.648
				c0.138,0.34,0.293,0.494,0.685,0.514c2.224,0.113,4.41,0.33,6.354,1.629c0.745,0.5,1.312,0.328,1.932-0.309
				c0.403-0.414,0.882-0.646,1.417-0.82c1.32-0.426,2.695-0.381,4.049-0.496c0.418-0.035,0.628-0.146,0.79-0.568
				c1.104-2.859,2.256-5.703,3.367-8.562c0.163-0.42,0.377-0.656,0.825-0.801c3.025-0.984,6.034-2.018,9.061-2.998
				c0.494-0.158,0.758-0.42,0.955-0.873c0.615-1.416,1.267-2.816,1.895-4.23c1.396-3.137,2.917-6.225,3.882-9.538
				c0.934-3.2,1.034-6.398-0.379-9.482c-1.907-4.167-4.889-7.456-8.485-10.262c-1.689-1.318-3.421-1.554-5.389-0.929
				c-2.116,0.672-4.142,1.559-6.143,2.509c-1.501,0.712-2.988,1.447-4.368,2.387c-0.617,0.42-0.586,0.915-0.35,1.507
				c0.23,0.574,0.648,0.718,1.224,0.63c0.967-0.146,1.889-0.448,2.788-0.805c3.457-1.373,7.046-1.824,10.736-1.647
				c0.238,0.012,0.438,0.02,0.594,0.252c1.474,2.181,3.09,4.266,4.393,6.56c0.106,0.185,0.296,0.37,0.148,0.674
				c-0.704-0.528-1.202-1.225-1.741-1.877c-0.931-1.125-1.91-2.197-3.115-3.043C87.708,127.401,85.461,127.208,83.12,127.502z
				 M72.196,165.15c1.458,0,2.915-0.014,4.373,0.008c0.376,0.006,0.578-0.07,0.673-0.473c0.221-0.943,0.509-1.869,0.734-2.812
				c0.995-4.18,1.753-8.408,2.546-12.625c0.222-1.18,0.783-1.793,1.827-2.137c1.117-0.371,2.228-0.75,3.343-1.123
				c0.866-0.285,1.4-0.857,1.557-1.768c0.333-1.916,0.603-3.835,0.445-5.79c-0.144-1.777-0.825-3.295-2.135-4.523
				c-1.673-1.569-3.675-2.528-5.85-3.171c-0.996-0.294-2-0.577-3.042-0.641c-0.626-0.039-0.716,0.102-0.439,0.649
				c0.313,0.617,0.646,1.225,0.976,1.833c0.867,1.603,1.856,3.139,2.638,4.789c0.258,0.545,0.484,1.113,0.258,1.733
				c-0.39,1.077-0.961,2.044-1.761,2.871c-0.121,0.127-0.256,0.352-0.445,0.256c-0.246-0.125-0.09-0.383-0.031-0.554
				c0.269-0.786,0.588-1.555,0.748-2.373c0.152-0.78,0.123-1.562-0.442-2.161c-1.62-1.717-3.516-2.928-5.975-2.944
				c-1.892-0.016-3.463,0.895-4.985,1.868c-1.562,0.996-1.816,1.809-1.25,3.58c0.225,0.702,0.479,1.397,0.565,2.138
				c0.02,0.158,0.06,0.352-0.106,0.441c-0.184,0.096-0.306-0.079-0.393-0.198c-0.285-0.392-0.53-0.812-0.823-1.196
				c-1.162-1.521-1.053-3.009-0.073-4.605c1.002-1.629,1.88-3.335,2.765-5.033c0.483-0.927,0.344-1.165-0.674-1.014
				c-3.847,0.574-7.192,2.137-9.703,5.209c-0.583,0.713-0.864,1.572-0.93,2.493c-0.184,2.539,0.351,5.017,0.649,7.515
				c0.048,0.398,0.357,0.381,0.597,0.447c1.73,0.492,3.462,0.982,5.201,1.443c0.419,0.109,0.595,0.314,0.649,0.744
				c0.104,0.846,0.271,1.686,0.411,2.527c0.791,4.738,1.641,9.463,3.038,14.07c0.121,0.396,0.265,0.547,0.697,0.537
				C69.281,165.131,70.739,165.15,72.196,165.15z"/>
			<path fill="#4C010F" d="M97.756,112.853c-0.889,1.828-1.193,3.715-1.127,5.679c0.037,1.103,0.627,1.843,1.492,2.436
				c3.341,2.292,6.183,5.135,8.928,8.084c0.205,0.219,0.406,0.444,0.586,0.684c0.432,0.574,1.064,1.055,0.468,1.945
				c-0.296,0.442-0.158,1.081-0.169,1.636c-0.071,3.657,0.299,7.301,0.313,10.956c0.003,0.577,0.001,1.157-0.02,1.735
				c-0.021,0.545-0.004,1.057-0.784,1.205c-0.426,0.08-0.643,0.629-0.89,1.018c-1.057,1.658-1.919,3.422-2.788,5.178
				c-1.29,2.604-2.568,5.215-3.864,7.814c-0.235,0.475-0.525,0.924-0.794,1.379c-0.467,0.791-1.116,1.162-2.079,1.248
				c-2.774,0.246-5.405,1.156-8.063,1.93c-2.037,0.596-4.077,1.178-6.109,1.791c-0.624,0.186-0.665,0.002-0.491-0.541
				c0.624-1.938,1.429-3.795,2.38-5.594c0.244-0.461,0.614-0.719,1.083-0.906c2.221-0.879,4.552-1.354,6.867-1.883
				c0.694-0.156,1.102-0.471,1.455-1.08c1.986-3.439,3.91-6.908,5.74-10.43c0.544-1.047,1.139-2.062,1.876-2.987
				c0.254-0.319,0.503-0.608,0.975-0.705c0.606-0.125,0.36-0.687,0.294-1.044c-0.249-1.335-0.552-2.665-0.846-3.994
				c-0.483-2.186-1.088-4.346-1.396-6.567c-0.081-0.584-0.211-1.189,0.234-1.725c0.207-0.249-0.024-0.485-0.156-0.683
				c-0.475-0.72-1.091-1.317-1.72-1.897c-3.217-2.972-6.649-5.656-10.439-7.873c-1.035-0.604-1.988-0.692-3.137-0.213
				c-4.347,1.808-8.567,3.888-12.824,5.888c-0.441,0.208-0.771,0.211-1.211,0.005c-4.298-2.022-8.561-4.123-12.944-5.958
				c-0.922-0.386-1.718-0.367-2.561,0.119c-4.429,2.553-8.448,5.643-12.064,9.255c-0.242,0.243-0.439,0.536-0.636,0.819
				c-0.088,0.127-0.223,0.312-0.127,0.444c0.681,0.94,0.289,1.928,0.1,2.872c-0.551,2.737-1.172,5.461-1.757,8.19
				c-0.083,0.385-0.145,0.775-0.18,1.165c-0.052,0.554-0.112,1.052,0.62,1.34c0.462,0.183,0.698,0.775,0.991,1.218
				c1.458,2.195,2.66,4.539,3.914,6.852c0.892,1.643,1.828,3.26,2.787,4.865c0.521,0.871,1.227,1.455,2.156,1.855
				c1.921,0.824,3.941,1.311,5.967,1.748c0.919,0.199,1.475,0.58,1.842,1.471c0.708,1.725,1.65,3.352,2.23,5.137
				c0.233,0.719,0.21,0.762-0.556,0.637c-2.057-0.334-4.023-1.014-6.017-1.592c-2.746-0.799-5.466-1.703-8.328-2.027
				c-0.699-0.08-1.141-0.572-1.521-1.109c-0.643-0.906-1.139-1.9-1.648-2.885c-1.76-3.398-3.353-6.885-5.27-10.205
				c-0.403-0.699-0.728-1.566-1.34-1.994c-1.255-0.879-1.109-2.104-1.151-3.301c-0.112-3.174,0.152-6.332,0.497-9.483
				c0.086-0.784,0.105-1.568,0.083-2.354c-0.009-0.307-0.02-0.668-0.241-0.847c-0.588-0.471-0.308-0.884,0.01-1.305
				c1.458-1.93,3.246-3.545,4.99-5.198c1.527-1.448,3.079-2.873,4.806-4.085c0.988-0.693,1.479-1.613,1.468-2.819
				c-0.011-1.388-0.049-2.775-0.376-4.133c-0.207-0.852-0.453-0.978-1.217-0.595c-2.335,1.165-4.15,2.906-5.531,5.103
				c-0.312,0.495-0.545,1.042-0.123,1.614c0.173,0.236,0.387,0.402,0.702,0.336c0.283-0.059,0.418-0.276,0.494-0.527
				c0.045-0.154,0.092-0.324,0.07-0.478c-0.169-1.195,0.489-1.97,1.333-2.641c0.657-0.521,1.377-0.928,2.2-1.131
				c0.22-0.054,0.487-0.192,0.634,0.051c0.127,0.208-0.111,0.369-0.238,0.518c-0.636,0.741-0.74,1.622-0.667,2.54
				c0.022,0.299,0.081,0.643,0.55,0.445c0.141-0.059,0.323-0.166,0.424,0.032c0.085,0.171-0.063,0.308-0.183,0.412
				c-0.624,0.551-1.24,1.113-1.886,1.633c-1.69,1.365-3.402,2.704-5.23,3.88c-1.379,0.889-2.308,0.545-2.86-1.023
				c-0.402-1.145-0.325-2.332-0.222-3.502c0.15-1.704,0.464-3.384,0.879-5.046c0.261-1.041,0.767-1.922,1.562-2.641
				c2.074-1.872,4.278-3.526,7.038-4.266c2.021-0.542,3.865-0.36,5.495,1.123c0.958,0.872,1.915,1.744,2.828,2.661
				c0.311,0.311,0.497,0.374,0.794-0.008c0.355-0.453,0.8-0.836,1.163-1.286c1.393-1.729,3.184-2.641,5.395-2.905
				c2.646-0.316,5.284-0.572,7.945-0.239c0.251,0.032,0.498,0.1,0.748,0.142c0.854,0.139,1.317,0.633,1.512,1.481
				c0.456,1.994,0.526,4.029,0.696,6.053c0.078,0.921,0.186,1.839,0.315,2.754c0.032,0.227,0.021,0.509,0.318,0.721
				c0.34-0.998,0.388-2.006,0.477-3.001c0.187-2.07,0.251-4.154,0.682-6.198c0.315-1.488,0.543-1.819,2.064-1.958
				c3.234-0.296,6.467-0.244,9.636,0.595c1.292,0.341,2.424,1.014,3.395,1.939c0.654,0.622,1.318,1.236,1.935,1.892
				c0.311,0.331,0.477,0.269,0.75-0.028c0.597-0.645,1.218-1.267,1.852-1.877c2.454-2.361,5.05-2.769,8.119-1.273
				c2.034,0.989,3.76,2.423,5.499,3.836c0.379,0.309,0.66,0.721,0.819,1.186c1.054,3.079,1.526,6.227,1.063,9.477
				c-0.031,0.227-0.093,0.454-0.171,0.669c-0.42,1.148-1.216,1.472-2.275,0.854c-1.982-1.155-3.771-2.586-5.575-3.992
				c-0.637-0.497-1.24-1.038-1.85-1.569c-0.148-0.13-0.392-0.278-0.256-0.504c0.12-0.202,0.328-0.041,0.49,0.028
				c0.41,0.175,0.507-0.057,0.478-0.39c-0.063-0.713-0.16-1.423-0.225-2.137c-0.03-0.338-0.133-0.741,0.213-0.956
				c0.325-0.205,0.612,0.083,0.875,0.245c0.571,0.352,1.112,0.749,1.589,1.223c0.533,0.524,0.86,1.111,0.745,1.914
				c-0.098,0.672,0.226,1.1,0.723,1.128c0.473,0.027,0.857-0.403,0.913-1.03c0.036-0.406-0.102-0.777-0.28-1.128
				c-0.254-0.497-0.604-0.929-0.993-1.328C101.381,115.299,99.525,114.159,97.756,112.853z"/>
			<path fill="#4C010F" d="M83.12,127.502c2.342-0.294,4.588-0.103,6.605,1.313c1.207,0.845,2.184,1.918,3.115,3.043
				c0.539,0.652,1.037,1.35,1.741,1.877c0.148-0.305-0.042-0.489-0.148-0.674c-1.303-2.294-2.919-4.38-4.393-6.561
				c-0.157-0.233-0.356-0.24-0.594-0.252c-3.691-0.177-7.279,0.275-10.736,1.647c-0.899,0.357-1.821,0.66-2.788,0.805
				c-0.575,0.087-0.994-0.056-1.224-0.63c-0.237-0.592-0.268-1.087,0.35-1.507c1.379-0.94,2.867-1.674,4.368-2.387
				c2.001-0.95,4.027-1.837,6.143-2.509c1.968-0.625,3.7-0.389,5.389,0.929c3.596,2.806,6.579,6.095,8.485,10.262
				c1.413,3.083,1.313,6.283,0.379,9.482c-0.965,3.314-2.487,6.4-3.882,9.539c-0.627,1.414-1.28,2.814-1.895,4.23
				c-0.196,0.451-0.46,0.715-0.955,0.871c-3.028,0.98-6.035,2.014-9.061,2.998c-0.447,0.145-0.661,0.381-0.825,0.803
				c-1.112,2.857-2.265,5.701-3.367,8.561c-0.162,0.422-0.372,0.533-0.79,0.57c-1.354,0.113-2.73,0.068-4.049,0.494
				c-0.534,0.174-1.013,0.406-1.417,0.82c-0.62,0.639-1.188,0.809-1.932,0.311c-1.943-1.299-4.128-1.516-6.354-1.631
				c-0.392-0.02-0.547-0.174-0.685-0.514c-1.167-2.887-2.362-5.762-3.526-8.648c-0.16-0.396-0.367-0.617-0.785-0.756
				c-3.024-0.988-6.037-2.008-9.055-3.014c-0.282-0.094-0.552-0.154-0.697-0.484c-1.944-4.408-4.077-8.73-5.732-13.267
				c-1.85-5.078-0.851-9.667,2.15-13.962c1.914-2.737,4.356-4.956,6.97-7.006c1.243-0.974,2.643-1.153,4.069-0.751
				c3.954,1.113,7.642,2.846,11.141,4.991c0.631,0.387,0.729,0.879,0.466,1.531c-0.248,0.615-0.668,0.849-1.312,0.714
				c-0.93-0.194-1.833-0.487-2.699-0.862c-3.437-1.483-7.047-1.785-10.729-1.63c-0.213,0.009-0.387,0.022-0.53,0.233
				c-1.488,2.2-3.08,4.329-4.445,6.611c-0.043,0.072-0.065,0.155,0.027,0.344c0.283-0.307,0.568-0.614,0.852-0.921
				c1.038-1.12,2.03-2.277,3.203-3.266c2.13-1.793,4.595-2.082,7.317-1.744c-0.334,0.454-0.811,0.533-1.162,0.791
				c-0.331,0.243-0.779,0.456-0.706,0.941c0.066,0.441,0.508,0.547,0.884,0.678c0.751,0.262,0.809,0.45,0.215,1.024
				c-1.564,1.513-3.269,2.875-5.015,4.161c-1.213,0.893-1.559,1.841-1.139,3.254c0.671,2.253,1.212,4.544,2.063,6.745
				c0.532,1.375,1.422,2.297,2.921,2.549c0.828,0.139,1.237,0.748,1.561,1.434c0.81,1.719,1.348,3.531,1.927,5.332
				c1.194,3.709,2.371,7.424,3.532,11.145c0.137,0.439,0.353,0.619,0.792,0.701c1.54,0.277,3.104,0.471,4.482,1.326
				c0.385,0.24,0.86,0.115,1.267-0.096c0.969-0.502,1.991-0.875,3.054-1.088c1.38-0.273,2.161-1.094,2.562-2.41
				c0.903-2.953,1.843-5.896,2.771-8.846c0.526-1.67,1.042-3.344,1.651-4.99c0.463-1.256,1.184-2.215,2.507-2.668
				c1.337-0.459,2.168-1.439,2.625-2.76c0.854-2.464,1.368-5.029,2.157-7.513c0.144-0.449-0.182-0.746-0.42-1.039
				c-0.72-0.883-1.598-1.603-2.476-2.32c-1.002-0.82-2.011-1.63-3.004-2.461c-0.264-0.22-0.497-0.483-0.716-0.75
				c-0.243-0.297-0.211-0.532,0.196-0.674c0.426-0.148,1.012-0.219,1.04-0.771c0.029-0.585-0.541-0.802-0.975-1.06
				c-0.271-0.16-0.547-0.307-0.82-0.46C83.08,127.622,83.101,127.562,83.12,127.502z"/>
			<path fill="#4C010F" d="M72.196,165.15c-1.458,0-2.915-0.02-4.371,0.01c-0.432,0.01-0.576-0.141-0.697-0.537
				c-1.397-4.607-2.247-9.332-3.038-14.07c-0.141-0.842-0.308-1.682-0.412-2.527c-0.054-0.432-0.229-0.635-0.648-0.744
				c-1.739-0.461-3.471-0.951-5.201-1.443c-0.24-0.066-0.549-0.049-0.597-0.447c-0.298-2.498-0.832-4.976-0.649-7.515
				c0.066-0.92,0.346-1.78,0.93-2.493c2.511-3.072,5.856-4.635,9.703-5.209c1.018-0.151,1.156,0.086,0.674,1.014
				c-0.884,1.698-1.762,3.405-2.765,5.033c-0.98,1.596-1.088,3.084,0.072,4.605c0.292,0.384,0.538,0.805,0.823,1.196
				c0.088,0.119,0.209,0.294,0.394,0.198c0.167-0.089,0.126-0.282,0.106-0.441c-0.085-0.741-0.34-1.436-0.565-2.138
				c-0.565-1.771-0.312-2.583,1.25-3.58c1.522-0.973,3.093-1.883,4.985-1.868c2.459,0.018,4.355,1.227,5.975,2.944
				c0.565,0.598,0.595,1.381,0.442,2.161c-0.16,0.819-0.48,1.587-0.748,2.373c-0.059,0.171-0.215,0.429,0.031,0.554
				c0.19,0.096,0.324-0.129,0.445-0.256c0.8-0.825,1.372-1.794,1.761-2.871c0.226-0.62,0-1.188-0.258-1.733
				c-0.782-1.65-1.771-3.186-2.639-4.789c-0.329-0.608-0.663-1.215-0.976-1.833c-0.276-0.548-0.188-0.688,0.439-0.649
				c1.043,0.063,2.046,0.347,3.042,0.641c2.174,0.643,4.176,1.602,5.85,3.171c1.31,1.228,1.992,2.746,2.135,4.523
				c0.156,1.955-0.112,3.874-0.445,5.79c-0.158,0.911-0.692,1.483-1.557,1.768c-1.116,0.371-2.227,0.75-3.344,1.123
				c-1.042,0.344-1.604,0.955-1.826,2.137c-0.793,4.217-1.551,8.445-2.546,12.625c-0.225,0.943-0.513,1.869-0.734,2.812
				c-0.094,0.402-0.296,0.479-0.672,0.473C75.112,165.137,73.654,165.15,72.196,165.15z M75.874,153.174
				c0.37-1.18,0.73-2.24,1.034-3.316c0.259-0.92,0.047-1.385-0.786-1.828c-0.3-0.162-0.635-0.283-0.969-0.35
				c-1.572-0.324-3.16-0.377-4.758-0.215c-0.667,0.066-1.333,0.141-1.958,0.408c-0.77,0.33-1.107,0.824-0.999,1.549
				c0.118,0.799,0.349,1.578,0.701,2.307c0.124,0.258,0.259,0.615,0.624,0.547c0.342-0.062,0.384-0.432,0.45-0.717
				c0.131-0.566,0.141-1.146,0.159-1.723c0.006-0.217-0.089-0.529,0.182-0.604c0.211-0.061,0.298,0.244,0.439,0.387
				c0.08,0.08,0.142,0.184,0.217,0.271c0.221,0.25,0.385,0.256,0.573-0.064c0.411-0.689,0.439-0.691,0.95-0.027
				c0.294,0.379,0.528,0.379,0.807,0c0.167-0.229,0.28-0.52,0.612-0.658c0.158,0.348,0.036,0.932,0.602,0.867
				c0.725-0.078,1.001,0.402,1.232,0.9C75.307,151.594,75.545,152.318,75.874,153.174z M71.832,162.279
				c0.001,0.006,0.002,0.014,0.003,0.02c0.665-0.061,1.333-0.104,1.995-0.184c1.207-0.15,1.5-0.469,1.6-1.668
				c0.053-0.627-0.079-0.68-0.679-0.467c-1.787,0.629-3.583,0.777-5.365-0.049c-0.138-0.064-0.26-0.219-0.437-0.111
				c-0.199,0.121-0.144,0.326-0.132,0.502c0.086,1.377,0.595,1.883,1.979,1.953C71.14,162.293,71.487,162.279,71.832,162.279z
				 M69.772,140.458c-0.019-0.555-0.069-1.059-0.205-1.55c-0.106-0.38-0.317-0.458-0.669-0.244
				c-0.866,0.528-1.089,1.229-0.596,2.111c0.236,0.421,0.45,1.082,1.045,0.913C69.887,141.536,69.725,140.879,69.772,140.458z
				 M76.248,139.964c0.005-0.489-0.579-1.239-1.041-1.394c-0.274-0.092-0.391,0.047-0.45,0.27c-0.222,0.836-0.231,1.687-0.053,2.525
				c0.086,0.405,0.395,0.517,0.715,0.194C75.868,141.112,76.165,140.574,76.248,139.964z"/>
			<path fill="#FDFDFD" d="M75.874,153.174c-0.328-0.855-0.567-1.58-0.886-2.266c-0.231-0.496-0.508-0.979-1.232-0.9
				c-0.566,0.064-0.444-0.52-0.602-0.867c-0.331,0.139-0.444,0.43-0.612,0.658c-0.279,0.379-0.513,0.379-0.807,0
				c-0.511-0.662-0.539-0.66-0.95,0.027c-0.19,0.32-0.354,0.314-0.573,0.064c-0.075-0.088-0.137-0.191-0.217-0.271
				c-0.142-0.143-0.228-0.445-0.439-0.387c-0.271,0.072-0.176,0.387-0.182,0.604c-0.019,0.576-0.028,1.158-0.159,1.723
				c-0.066,0.285-0.108,0.654-0.45,0.717c-0.365,0.066-0.5-0.289-0.624-0.547c-0.353-0.73-0.583-1.508-0.701-2.307
				c-0.107-0.725,0.23-1.219,0.999-1.549c0.623-0.268,1.291-0.342,1.958-0.408c1.596-0.162,3.185-0.109,4.758,0.215
				c0.333,0.066,0.668,0.188,0.968,0.35c0.833,0.443,1.045,0.908,0.786,1.828C76.603,150.934,76.244,151.994,75.874,153.174z"/>
			<path fill="#FDFDFD" d="M71.832,162.279c-0.345,0-0.692,0.016-1.037-0.004c-1.383-0.07-1.892-0.574-1.979-1.953
				c-0.012-0.176-0.067-0.381,0.132-0.502c0.177-0.107,0.299,0.047,0.437,0.111c1.782,0.826,3.579,0.678,5.365,0.049
				c0.601-0.213,0.732-0.16,0.679,0.467c-0.101,1.199-0.395,1.518-1.6,1.668c-0.663,0.08-1.331,0.123-1.995,0.184
				C71.834,162.291,71.833,162.285,71.832,162.279z"/>
			<path fill="#FDFDFD" d="M69.772,140.458c-0.047,0.422,0.115,1.078-0.426,1.229c-0.595,0.169-0.809-0.492-1.045-0.913
				c-0.493-0.882-0.27-1.583,0.596-2.111c0.352-0.214,0.563-0.137,0.669,0.244C69.702,139.398,69.753,139.903,69.772,140.458z"/>
			<path fill="#FDFDFD" d="M76.248,139.964c-0.083,0.61-0.38,1.148-0.829,1.595c-0.32,0.322-0.628,0.211-0.715-0.194
				c-0.178-0.838-0.169-1.689,0.053-2.525c0.06-0.223,0.176-0.361,0.45-0.27C75.668,138.725,76.253,139.475,76.248,139.964z"/>
		</g>
	</g>
</g>
</svg>
