<svg width="29" height="29" viewBox="0 0 29 29" fill="none" xmlns="http://www.w3.org/2000/svg">
  <rect x="0.652832" y="0.695801" width="28" height="28" rx="2" fill="#13AA53"/>
  <defs>
    <style>
      .cls-1 {
        fill: #011221;
      }

      .cls-2 {
        fill: #13AA53;
      }
    </style>
  </defs>
  <circle class="cls-1" cx="14.6" cy="15" r="9.5"/>
  <path class="cls-2" d="m17.32,7.57s-1.22,1.19-2.55,1.66C5.38,12.78,9.51,19.68,9.65,19.7c0,0,.55-.96,1.29-1.5,4.71-3.46,5.67-7.45,5.67-7.45,0,0-1.06,4.79-5.25,7.78-.93.66-1.55,2.28-1.82,3.9,0,0,.66-.26.94-.34.11-.72.34-1.4.73-2.02,5.85.7,7.77-4.02,8.02-5.67.59-3.88-1.51-6.84-1.51-6.84"/>
</svg>
