<?xml version="1.0" encoding="UTF-8"?>
<svg xmlns="http://www.w3.org/2000/svg" xmlns:xlink="http://www.w3.org/1999/xlink" viewBox="0 0 3000 3000">
  <defs>
    <style>
      .cls-1 {
        fill: url(#linear-gradient-2);
      }

      .cls-2 {
        opacity: .12;
      }

      .cls-2, .cls-3, .cls-4, .cls-5, .cls-6, .cls-7, .cls-8, .cls-9, .cls-10 {
        fill: #607b96;
      }

      .cls-11 {
        opacity: .45;
      }

      .cls-11, .cls-12, .cls-13, .cls-14, .cls-15, .cls-16, .cls-17 {
        fill: #fff;
      }

      .cls-3 {
        opacity: .5;
      }

      .cls-18, .cls-6, .cls-15 {
        opacity: .2;
      }

      .cls-13, .cls-19, .cls-10 {
        opacity: .1;
      }

      .cls-20 {
        opacity: .07;
      }

      .cls-5, .cls-14 {
        opacity: .25;
      }

      .cls-16 {
        stroke: #607b96;
        stroke-miterlimit: 10;
        stroke-width: 19.95px;
      }

      .cls-7 {
        opacity: .35;
      }

      .cls-21 {
        fill: url(#linear-gradient);
      }

      .cls-8 {
        opacity: .8;
      }

      .cls-17 {
        opacity: .65;
      }

      .cls-9 {
        opacity: .15;
      }
    </style>
    <linearGradient id="linear-gradient" x1="804.75" y1="1298.14" x2="1130.64" y2="1280.68" gradientTransform="translate(.41 -.36)" gradientUnits="userSpaceOnUse">
      <stop offset=".51" stop-color="#607b96" stop-opacity=".55"/>
      <stop offset="1" stop-color="#607b96"/>
    </linearGradient>
    <linearGradient id="linear-gradient-2" x1="2141.05" y1="1275.27" x2="1696.55" y2="1291.9" xlink:href="#linear-gradient"/>
  </defs>
  <g id="Layer_6" data-name="Layer 6">
    <path class="cls-12" d="m1454.83,504.54c1.59,0,3.15.02,4.7.06,8.83.21,16.61.26,23.68.26s13.37-.05,19.28-.05c15.51,0,28.16.36,43.5,2.96,3.86.66,7.9,1.45,12.2,2.42,2.15.48,4.44.95,6.87,1.39,2.43.44,4.98.87,7.66,1.29,1.34.21,2.71.41,4.1.62,6.98,1.02,14.65,1.98,22.8,3.01,1.63.2,3.28.41,4.95.62,35,4.4,77.67,10.12,111.86,24.66,6.51,2.77,13.04,5.92,19.55,9.37,4.88,2.59,9.75,5.34,14.59,8.22,4.84,2.88,9.65,5.9,14.42,9.01,5.7,3.72,11.32,7.58,16.86,11.51,1.29.91,2.57,1.83,3.85,2.75,20.82,15.01,40.22,30.9,56.67,44.37,1.21.99,2.41,1.97,3.59,2.94,2.36,1.93,4.65,3.8,6.87,5.6,1.11.9,2.2,1.79,3.28,2.65,1.61,1.3,3.28,2.59,4.99,3.88,2.29,1.71,4.67,3.42,7.13,5.14.62.43,1.24.86,1.86,1.29,1.25.86,2.53,1.72,3.82,2.59s2.6,1.74,3.93,2.62c7.98,5.26,16.61,10.75,25.69,16.8.76.5,1.52,1.01,2.28,1.53,22.86,15.39,48.35,34.58,73.04,63.21,7.41,8.59,14.74,18.03,21.91,28.47,1.59,2.32,3.18,4.67,4.75,7.06,32.99,50.04,60.89,113.01,79.46,157.1.44,1.05.88,2.09,1.31,3.12,8.2,19.53,14.47,35.05,18.42,43.61,7.48,16.21,15.85,39.79,23.13,63.82.4,1.34.8,2.67,1.2,4.01,1.98,6.69,3.88,13.38,5.63,19.93.35,1.31.7,2.61,1.04,3.91,2.38,9.08,4.47,17.83,6.17,25.83,7.02,33.15,5.4,42.63,3.39,64.33-.21,2.24-.42,4.62-.63,7.17-2.22,27.16-5.54,29.93-8.86,53.76-3.22,23.09-11.9,66.2-10.42,103.14.05,1.19.11,2.38.18,3.55.28,4.71.58,9.05.9,13.07.08,1,.16,1.99.24,2.95,1,12.18,2,21.25,2.26,28.73,1.34,1.28,2.75,2.46,4.22,3.69,10.89,9.07,19.18,18.39,18.71,48.43-.59,38.13-4.56,69.46-14.63,115.59-3.81,17.47-6.15,25.65-7.7,31.07-2.56,8.98-2.77,9.72-4.84,40.09-.22,3.26-.43,6.43-.64,9.52-2.95,44.09-4.74,70.71-17.13,104.13-5.98,16.11-6.35,32.58-6.68,47.1-.35,15.2-.67,29.56-7.37,40.95-11.6,19.71-25.81,36.29-40.38,47.17-2.16,13.8-9.82,59.39-24.64,113.8-22.76,83.57-51.2,149.13-84.59,195.1-3.34,65.46-7.43,142.02-9.2,160.72-1.96,20.72-22.74,48.61-63.55,85.28-33.5,30.1-79.51,65.05-133.07,101.07-89.65,60.29-205.76,126.28-254.22,135.77-2.24.44-4.7.66-7.37.66-18.99,0-48.78-11.17-90.61-33.93-38.81-21.12-86.76-51.63-138.65-88.24-85.75-60.49-186.34-141.24-203.86-171.77-2.39-4.17-8-13.94-14.5-139.38-.47-9.12-.92-18.21-1.33-27.07-4.96-6.49-9.78-13.13-14.44-19.95-60.21-88.08-89.61-174.27-104.34-306.38-5.6-5.05-15.66-16.45-24.23-38.74-5.61-14.58-8.5-28.51-11.57-43.26-3.32-15.95-6.75-32.45-14.02-52.86-15.4-43.24-34.95-142.73-34.95-192.9,0-2.47,0-4.93,0-7.36-.07-49.15-.13-91.61,29.31-107.06,7.92-4.15,15.01-6.76,21.16-8.35-.04-.63-.09-1.27-.13-1.9-.06-.83-.12-1.66-.17-2.5-.1-1.48-.2-2.99-.29-4.5-.05-.74-.1-1.47-.14-2.22-.14-2.26-.28-4.55-.41-6.88-.29-5.13-.63-10.28-1.01-15.46-.38-5.17-.8-10.36-1.25-15.57-5.42-62.44-15.16-126.66-11.02-182.59.69-9.32,1.76-18.41,3.31-27.23.78-4.45,1.5-8.88,2.16-13.3.44-2.94.86-5.87,1.25-8.8.2-1.46.39-2.92.58-4.38.75-5.83,1.41-11.63,2.02-17.39.15-1.44.3-2.88.44-4.32.44-4.31.84-8.61,1.23-12.89.13-1.43.25-2.85.38-4.27.5-5.69.97-11.36,1.43-17,.12-1.41.23-2.82.35-4.23,2.41-29.55,4.79-58.42,10.43-86.99.27-1.36.54-2.72.83-4.08.85-4.08,1.77-8.15,2.77-12.22.33-1.36.68-2.71,1.03-4.07,2.11-8.13,4.55-16.24,7.39-24.35.47-1.35.96-2.7,1.46-4.05.99-2.7,2.04-5.4,3.13-8.1.55-1.35,1.1-2.7,1.67-4.05,2.85-6.75,6.02-13.49,9.55-20.24,2.12-4.05,4.37-8.1,6.76-12.15,17.53-29.72,33.22-56.43,47.62-80.04,27.49-45.07,50.27-78.83,72.09-100.65,8.31-8.31,20.02-20.37,34.4-34.24.9-.87,1.81-1.74,2.73-2.62,3.68-3.52,7.52-7.15,11.51-10.86,1-.93,2.01-1.86,3.02-2.79,3.05-2.81,6.19-5.65,9.4-8.52,1.07-.96,2.15-1.92,3.24-2.88,2.18-1.92,4.39-3.86,6.64-5.8,3.37-2.91,6.81-5.83,10.32-8.76,2.34-1.95,4.72-3.9,7.12-5.85,3.6-2.92,7.27-5.83,11.01-8.72,3.73-2.89,7.53-5.76,11.38-8.6,1.28-.95,2.57-1.89,3.87-2.83,5.18-3.75,10.47-7.44,15.84-11.02,2.68-1.79,5.39-3.56,8.12-5.31,6.82-4.36,13.76-8.54,20.82-12.48,1.41-.79,2.82-1.57,4.24-2.34,17.02-9.24,34.62-17.08,52.5-22.69,41.71-13.1,77.47-23.44,108.41-30.85,2.21-.53,4.4-1.04,6.56-1.54,34.44-7.95,62.73-12.07,86.51-12.07m0-25h0c-25.29,0-54.57,4.04-92.14,12.71-2.22.51-4.48,1.04-6.75,1.59-29.74,7.12-64.72,17.07-110.08,31.31-18.39,5.78-37.55,14.04-56.94,24.57-1.5.82-3.02,1.65-4.53,2.5-7.25,4.06-14.67,8.51-22.06,13.23-2.84,1.81-5.72,3.69-8.55,5.59-5.47,3.66-11.06,7.54-16.6,11.56-1.35.98-2.7,1.96-4.04,2.95-3.92,2.89-7.91,5.9-11.86,8.96-3.77,2.92-7.62,5.97-11.43,9.06-2.45,1.98-4.93,4.02-7.38,6.06-3.53,2.93-7.12,5.98-10.67,9.05-2.28,1.97-4.58,3.98-6.85,5.98-1.12.99-2.23,1.98-3.34,2.97-3.19,2.85-6.44,5.8-9.67,8.77-1.05.96-2.08,1.92-3.11,2.87-3.86,3.58-7.83,7.33-11.8,11.13-.94.9-1.87,1.79-2.79,2.68-10.8,10.42-20.08,19.8-27.54,27.33-2.61,2.64-5.01,5.06-7.17,7.22-20.98,20.98-42.92,51.49-75.75,105.31-13.11,21.49-27.52,45.94-42.78,71.83l-5.03,8.53c-2.56,4.35-5.05,8.81-7.37,13.26-3.76,7.18-7.27,14.62-10.43,22.1-.61,1.44-1.22,2.93-1.82,4.42-1.17,2.91-2.32,5.88-3.41,8.83-.54,1.46-1.07,2.94-1.58,4.4-2.97,8.46-5.66,17.32-8,26.36-.38,1.46-.75,2.92-1.1,4.37-1.04,4.25-2.04,8.65-2.97,13.08-.3,1.45-.6,2.9-.88,4.34-5.95,30.17-8.43,60.48-10.82,89.8l-.13,1.59-.21,2.63c-.44,5.35-.91,11.1-1.42,16.86-.12,1.4-.25,2.8-.37,4.21-.41,4.51-.8,8.64-1.2,12.63-.14,1.4-.29,2.81-.43,4.21-.63,5.96-1.27,11.47-1.95,16.84-.18,1.4-.36,2.8-.55,4.21-.39,2.86-.79,5.7-1.2,8.44-.64,4.31-1.34,8.57-2.06,12.68-1.63,9.3-2.84,19.29-3.61,29.7-3.3,44.64,1.77,93.96,6.67,141.66,1.52,14.79,3.09,30.08,4.38,44.94.47,5.39.87,10.37,1.23,15.24.37,5.04.69,9.94.96,14.56-2.21,1.02-4.43,2.1-6.64,3.27-11.15,5.85-20.19,14.48-26.86,25.65-5.42,9.07-9.27,19.72-11.79,32.58-4.12,21.08-4.09,45.33-4.05,71v.56c0,2.24,0,4.5,0,6.77,0,53.38,20.02,155.29,36.4,201.29,6.69,18.79,9.8,33.74,13.09,49.56,3.13,15.08,6.38,30.67,12.71,47.14,7.46,19.4,16.2,32.47,23.7,41.06,7.72,65.48,18.99,118.56,35.32,166.47,17.16,50.36,40.12,95.71,72.25,142.72,3.34,4.88,6.85,9.81,10.47,14.71.32,6.67.64,13.2.97,19.49,2.82,54.53,5.85,93.97,8.98,117.21,2.66,19.76,5.15,26.95,8.81,33.32,5.51,9.61,15.52,21.28,31.48,36.73,13.23,12.8,30.25,27.85,50.58,44.72,37.22,30.87,84.26,66.7,129.06,98.31,52.67,37.15,101.46,68.19,141.11,89.77,46.35,25.22,78.94,36.97,102.56,36.97,4.26,0,8.36-.38,12.17-1.13,25.32-4.96,65.29-22.26,118.81-51.41,45.11-24.58,97.8-56.7,144.55-88.14,54.51-36.66,101.48-72.35,135.83-103.22,46.96-42.2,69.08-73.51,71.73-101.53,1.43-15.17,4.43-67.15,8.91-154.53,33.28-48,61.56-114.25,84.12-197.07,12.66-46.47,20.26-86.98,23.66-106.94,14.28-12.44,27.56-28.82,38.8-47.92,9.99-16.99,10.43-36.15,10.81-53.05.3-13.18.61-26.8,5.13-38.98,13.66-36.82,15.64-66.39,18.64-111.15l.09-1.41c.18-2.63.36-5.32.55-8.08,1.89-27.74,1.97-28.01,3.94-34.92,1.63-5.7,4.09-14.33,8.08-32.6,10.46-47.91,14.58-80.58,15.2-120.54.28-17.91-2.09-31.59-7.45-43.06-4.44-9.5-10.25-16.06-16.2-21.45-.21-2.61-.46-5.35-.72-8.24-.3-3.32-.6-6.76-.91-10.54-.08-.94-.15-1.89-.23-2.86-.34-4.36-.62-8.47-.87-12.58-.06-1.01-.11-2.05-.15-3.08-1.08-27.12,3.99-59,7.69-82.28.95-5.95,1.84-11.58,2.51-16.4,1.25-8.97,2.46-14.42,3.73-20.2,1.9-8.59,3.86-17.46,5.29-34.99.17-2.12.36-4.31.6-6.89.13-1.41.26-2.76.38-4.07,2.06-21.71,2.82-34.58-4.21-67.74-1.75-8.28-3.92-17.36-6.44-26.98-.35-1.34-.71-2.69-1.07-4.05-1.81-6.74-3.76-13.67-5.81-20.57-.41-1.38-.82-2.76-1.24-4.13-8.09-26.75-16.74-50.57-24.36-67.06-2.52-5.45-6.23-14.39-10.94-25.72-2.18-5.24-4.56-10.97-7.13-17.09l-1.32-3.14c-18.7-44.4-47.5-109.4-81.63-161.16-1.67-2.54-3.36-5.04-5.01-7.45-7.36-10.72-15.3-21.03-23.59-30.65-27.52-31.92-56.15-52.91-78.02-67.63-.79-.53-1.57-1.06-2.36-1.58-5.41-3.61-10.6-6.98-15.61-10.23-3.56-2.31-6.93-4.5-10.19-6.65-1.27-.84-2.53-1.68-3.77-2.51-1.22-.82-2.42-1.63-3.6-2.44-.58-.4-1.16-.8-1.73-1.2-2.37-1.65-4.47-3.17-6.43-4.63-1.52-1.14-2.97-2.26-4.29-3.33-1.05-.85-2.12-1.72-3.21-2.6-2.19-1.78-4.46-3.63-6.79-5.54l-3.31-2.71-.27-.22c-16.25-13.31-36.45-29.85-57.89-45.31-1.33-.96-2.66-1.91-4-2.86-6.21-4.4-11.98-8.35-17.67-12.05-5.18-3.38-10.32-6.59-15.29-9.55-5.31-3.17-10.59-6.14-15.68-8.84-7.32-3.88-14.54-7.34-21.47-10.29-38.56-16.41-86.68-22.46-118.53-26.46l-4.68-.59-.28-.04c-8.67-1.09-15.82-1.99-22.31-2.94-1.31-.19-2.61-.39-3.87-.58-2.59-.4-4.88-.79-7-1.17-2.15-.39-4.12-.79-5.86-1.18-4.69-1.06-9.11-1.94-13.52-2.68-18.04-3.06-32.85-3.31-47.68-3.31-2.86,0-5.81.01-8.89.02-3.3.01-6.74.03-10.39.03-8.43,0-15.76-.08-23.08-.26-1.74-.04-3.52-.06-5.29-.06h0Z"/>
  </g>
  <g id="Layer_5" data-name="Layer 5">
    <path class="cls-16" d="m1033.16,2094.43s7.29,236.6,18.2,255.61c29.74,51.81,362.83,301.58,429.91,288.45,84.95-16.63,435.62-236.96,442.82-313.26,3.17-33.6,14.16-260.6,14.16-260.6l-905.1,29.81Z"/>
  </g>
  <g id="Layer_2" data-name="Layer 2">
    <path class="cls-5" d="m1933.59,2158.34c2.6-51.06,4.66-93.72,4.66-93.72l-905.1,29.81s3.98,129.15,10.46,204.28c49.23,49.44,103.33,87.81,144.71,121.14,59.86,48.22,107.25,79.81,248.58,79.8,129.7-.01,209.5-68.18,251.9-97.28,42.4-29.1,118.88-64.85,202.84-173.77,15.89-20.61,29.81-44.72,41.94-70.25Z"/>
    <path class="cls-16" d="m1629.13,603.3s172.93,72.04,263.83,154.06c90.9,82.02,139.68,187.33,147.44,253.83,7.76,66.51,38.82,321.46,38.82,345.85s0,29.93,0,29.93c0,0,29.93-24.94,40.46-13.3s22.72,11.64,22.17,47.11-3.88,65.4-14.4,113.62c-10.53,48.22-9.42,23.83-12.74,72.61-3.32,48.77-4.43,76.49-17.18,110.85-12.75,34.36-2.21,67.62-13.3,86.46-11.08,18.84-25.49,36.03-41.01,46.56,0,0-29.09,206.46-113.05,315.37-83.96,108.91-160.44,144.67-202.84,173.77-42.4,29.1-122.2,97.27-251.9,97.28-141.33.02-188.72-31.58-248.58-79.8-59.86-48.22-146.33-106.96-206.19-194.53-59.86-87.57-88.69-172.92-103.11-305.94,0,0-13.3-8.31-24.39-37.13s-11.09-55.42-25.5-95.88c-14.41-40.46-34.37-139.67-34.37-189.55,0-49.88-1.39-92.28,23.96-105.58,25.36-13.3,40.32-8.73,40.32-8.73,0,0-23.3-359.56,83.11-530.83,106.4-171.27,357.47-359.17,648.45-286.03Z"/>
    <path class="cls-4" d="m1674.49,1459.81s-12.47-3.12-23.07,0c-10.6,3.12-47.39,4.92-44.69-1.38s10.6-21.48,23.9-30.42c13.3-8.94,18.91-13.1,27.64-20.99,8.73-7.9,43.23-41.99,85.84-42.2,42.61-.21,107.46,26.18,122,39.48,14.55,13.3,18.71,29.51,22.03,34.5l3.33,4.99s-22.86-2.22-28.96,1.11c-6.1,3.33-16.9,9.42-32.7,13.03,0,0,13.3-9.98,17.18-16.91s4.71-8.59,4.71-8.59c0,0-9.42-17.46-26.61-25.77-17.18-8.31-37.97-22.17-63.74-26.05s-58.2,6.38-76.48,20.23c-17.49,13.25-34.78,33.12-37.96,35.61s-2.63,3.88,0,5.54,4.85,5.82,7.9,5.82,7.21.69,12.61,3.6c5.4,2.91,13.3,8.17,13.3,8.17l-6.24.21Z"/>
    <path class="cls-4" d="m1238.03,1459.42s11.22-2.7,22.86,0c11.64,2.7,36.58,1.66,34.71-2.7-1.87-4.36-7.9-18.5-17.67-24.52-9.77-6.03-23.69-17.87-36.58-28.68-12.89-10.81-45.73-37.41-95.19-29.09-49.47,8.32-79.39,20.56-96.02,41.67-16.63,21.11-23.69,29.01-23.69,29.01,0,0,9.7.14,16.35,4.29,6.65,4.16,28.82,12.47,44.06,14.13,0,0-9.7-5.54-16.35-13.86-6.65-8.31-8.59-11.36-8.59-11.36,0,0,4.99-11.36,19.67-21.62,14.69-10.25,32.42-21.62,57.64-27.16,25.22-5.54,57.92-3.88,74.27,8.59,16.35,12.47,29.38,23.83,39.63,31.04,10.25,7.2,11.22,11.78,11.22,11.78-1.11.55-4.85,8.04-7.76,7.9s-6.24-1.39-10.25,1.11c-4.02,2.49-13.72,8.73-13.72,8.73l5.4.76Z"/>
    <circle class="cls-4" cx="1747.89" cy="1414.6" r="25.46"/>
    <circle class="cls-4" cx="1167.96" cy="1419.15" r="25.46"/>
    <path class="cls-8" d="m1198.35,1462.43c13.61-9.57,22.51-25.38,22.5-43.28,0-10.76-3.22-20.77-8.74-29.12-16.12-8.59-45.16-18.2-83.3-6.45-8.54,9.4-13.75,21.88-13.75,35.58,0,27.56,21.09,50.19,48.01,52.66,8.85-1.48,21.74-4.27,35.27-9.38Z"/>
    <path class="cls-8" d="m1758.79,1466.36c23.99-5.02,42-26.29,42-51.77,0-13.61-5.15-26.02-13.59-35.39-19.36-6.35-49.83-12.11-78.74.15-8.37,9.36-13.46,21.7-13.46,35.24,0,22.62,14.21,41.92,34.19,49.48,6.46.96,16.6,2.08,29.6,2.29Z"/>
    <path class="cls-4" d="m1608.67,1417.48c3.39-6.74,7.56-13.05,11.96-19.19,4.47-6.12,9.33-12.01,14.64-17.56,1.33-1.38,2.85-2.54,4.41-3.65,18.3-13.76,39.54-24.3,62.36-27.64,20.43-2.38,41.13-1.58,61.64-1.06,22.3,1.09,44.86,3.15,66.58,8.79,16.69,4.38,33.44,11.43,45.83,24.07,3.71,3.97,8.37,8.14,11.44,12.63,4.09,6.46,7.87,13.16,11.11,19.92,1.65,3.36,3.15,6.72,5.06,9.68,1.85,3.13,4.63,5.55,7.73,7.42-3.76-.85-7.35-2.63-10.21-5.26-2.94-2.64-5.34-5.62-7.8-8.41-4.83-5.66-9.69-11.01-14.94-16.04-1.31-1.25-2.39-2.7-3.51-4.12-2.51-3.26-5.87-7.27-8.63-10.33-5.25-5.77-11.61-10.48-18.41-14.41-25.48-14.45-55.39-19.14-84.39-20.13-20.09-.4-40.48.04-60.24,3.92-8.65,2.06-17.24,5.2-25.14,9.24-11.17,5.64-21.61,12.79-31.11,20.94-1.36,1.17-2.67,2.4-4.17,3.4-6.02,4-11.85,8.38-17.6,12.98-5.75,4.67-11.31,9.57-16.61,14.79h0Z"/>
    <path class="cls-4" d="m1288.88,1419.14c-10.96-8.35-22.23-15.91-33.74-22.71-1.45-.83-2.69-1.93-3.99-2.96-19.32-14.97-41.58-28.3-66.27-31.04-42.59-2.55-100.25.79-135.13,27.36-.87.77-2.68,2.19-3.49,3.06-1.48,1.39-3.35,3.36-4.54,5.01-1.18,1.43-2.02,3.1-3.15,4.57-4.55,5.71-9.3,11.26-14.14,16.76-4.6,5.12-9.13,10.37-14.34,14.95,3.36-5.97,6.15-12.22,9.12-18.38.86-1.43,9.24-20.22,10.02-20.83,3.78-5.42,8.97-9.92,14.43-13.58,15.13-9.59,32.38-13.57,49.62-16.76,16.86-2.87,33.84-4.95,50.89-6.21,13.64-1.02,27.37-1.84,41.06-1.84,26.56.85,51.28,12.71,72.87,27.41,1.47.94,2.9,1.95,4.17,3.15,5.04,4.88,9.76,10.02,14.23,15.35,4.46,5.32,8.65,10.86,12.36,16.69h0Z"/>
    <path class="cls-4" d="m1464.8,1790.28s-16.97,6.03-30.28,6.58c-13.3.56-42.33-.21-56.19-5.75-15.55-6.22-34.09-21.09-49.47-23.69-11.68-1.97-41.6,1.21-37.72,3.43,3.88,2.22,11.12,10.81,29.62,14.1,4.24.75,19.53.39,35.6,6.93,17.04,6.93,22.32,12.19,65.41,12.19,31.32,0,43.02-13.79,43.02-13.79Z"/>
    <path class="cls-4" d="m1483.44,1781.34s44.7-19.32,61.66-19.4c16.07-.07,26.54,7.4,23.77,7.67-1.61.16-8.94,4.48-20.3,9.09-10.8,4.38-19.68-.97-35.47.42-15.8,1.39-29.65,2.21-29.65,2.21Z"/>
    <path class="cls-4" d="m1322.43,1805.05c-21.51,8.21-47.41,3.43-64.8-11.82-10.88-9.99-15.95-24.73-17.04-39.09-2.15-36.27,16.43-71.32,40.68-97.07-3.74,7.98-7.52,15.79-10.91,23.7-12.84,29.44-28.01,76.81-4.51,104.13,14.45,14.78,36.1,21.13,56.59,20.15h0Z"/>
    <path class="cls-4" d="m1550.22,1808.78c21-.23,44.47-5.18,57.28-22.69,3.42-4.81,5.94-10.69,7.76-16.41,11.48-40.3-1.7-82.83-24.72-117.2,28.99,23.47,45.26,62.46,41.57,100.02-1.81,16.77-7.5,34.76-20.78,46.25-16.88,14.23-40.79,16.31-61.1,10.03h0Z"/>
    <path class="cls-6" d="m1234.11,1994.81s34.57-3.4,61.45-8.94c26.88-5.54,57.36-19.4,92.28-14.97,31.65,4.02,51.43,12.64,80.09,6.09,25.49-5.82,50.99-14.97,72.05-9.7,21.06,5.26,76.06,17.5,138.09,27.08,0,0-12.69,11.02-26.4,22.24-13.72,11.22-35.33,43.23-103.92,49.89-68.59,6.65-139.28,10.1-196.42,2.71-62.55-8.1-85-19.32-131.24-74.56l14.02.16Z"/>
    <path class="cls-4" d="m1193.82,1992.09c6.96-4.49,15.36-6.53,23.59-5.39,9.94,2.27,19.78,5.08,29.55,8.05,2.21.71,9.25,2.87,11.62,3.62,30.79,9.77,62.94,15.16,95.16,15.06,21.64-.34,43.12-1.77,64.72-3.33,10.87-.71,21.99-1.42,32.94-1.07,37.11.55,76.56,1.1,113.43-2.08,15.61-1.09,33.11-2.23,48.48-4.91,18.6-3.03,36.78-8.96,55.23-12.79,13.24-3.07,30.67-5.64,41.04,5.46-13.31-2.16-25.62,3.02-38.42,6.01-12.39,2.89-28.09,3.61-40.87,4.67-10.87.86-21.64,2.29-32.42,3.86-48.26,8.67-97.6,11.39-146.55,11.14-10.78-.09-21.34.51-32.14,1.22-21.73,1.29-43.64,1.87-65.43,1.52-11.19-.13-22.19-1.56-33-3.38-10.8-1.82-21.51-3.92-32.25-6.01-23.82-4.88-49.03-7.49-72.09-15.51-7.37-2.7-15.06-3.26-22.59-6.15h0Z"/>
    <path class="cls-21" d="m954.94,1352.65s36.58-45.98,66.23-44.59,47.94-6.65,59.86-4.16c11.92,2.49,21.34,3.88,21.34,3.88l-6.65-8.31s20.26,10.71,43.79,11.91c20.47,1.04,40.46,4.71,40.46,4.71l-12.19-8.59s20.83,9.58,60.97,15.24c41.88,5.9,82.02,14.93,80.09,6.65-4.03-17.29-20.51-60.41-36.03-65.4-15.52-4.99-54.32-12.74-90.34-23.27-36.03-10.53-139.12-29.37-159.07-17.73-15.68,9.15-33.81,29.38-47.66,42.68-13.86,13.3-21.06,31.04-22.72,48.22s-8.25,51.91,1.94,38.77Z"/>
    <path class="cls-1" d="m1963.8,1341.11s-37.83-29.93-54.46-31.59c-16.63-1.66-43.12,2.85-52.69,1.25-7.42-1.24-12.68-.73-12.68-.73,0,0,16.73-9.67,13.41-8.42-3.33,1.25-22.86,3.74-38.24,3.74-15.38,0-42.4.83-42.4.83l11.02-7.9c-3.74.83-42.19,9.98-76.28,13.72-34.09,3.74-63.17,4.24-84.24,6.52-21.2,2.29-40.05,5.9-39.35.28,1.66-13.3,20.78-61.25,45.03-71.22,15.35-6.32,83.97-6.24,128.44-14.97,44.48-8.73,91.03-21.21,104.75-12.06,13.72,9.14,41.98,18.29,59.03,31.17,17.04,12.89,29.95,23.07,41.57,47.8,13.47,28.68,19.54,66.92-2.91,41.57Z"/>
    <path class="cls-4" d="m1338.2,1388.95c.62,1.38,2.34,3.17,3.24,4.43,8.21,10.19,16.02,20.52,22.57,31.97,1.78,3.37,2.78,7.08,4.04,10.69,1.45,4.58,2.72,9.44,3.33,14.33.41,2.95.48,6.07.32,9.05-1.79,33.07-6.38,65.74-9.98,98.6-2.76,21.86-4.97,43.86-9.13,65.56-2.92,14.47-7.58,28.59-11.76,42.6-2.18,6.83-3.55,13.76-5.32,20.65-4.79,13.53-6.75,27.7-4.77,42.15-6.65-13.73-8.16-29.46-6.62-44.55.42-3.77,1.82-7.35,2.83-10.98,5.38-17.47,12.71-34.23,17.35-51.82,1.83-6.94,3.2-14.07,4.49-21.16,7.91-46.53,11.66-94.07,12.37-141.19.26-10.29-4.14-19.86-7.94-29.24-3.64-11.99-8.63-24.05-13.29-35.8,0,0-.99-2.6-.99-2.6-.28-.88-.66-1.76-.74-2.7h0Z"/>
    <path class="cls-6" d="m2053.9,1539.42s-26.47,274.32-42.26,320.04c-15.79,45.73-40.73,59.86-74.82,88.96-34.08,29.1-98.93,72.33-109.73,99.77-7.37,18.71-15.66,50.55-25.47,65.23h0s0,0,0,0c-.35.52-.69,1.02-1.03,1.49-5.14,6.07-11.6-5.65-17.83-28.48-6.65-24.39-2.78-97.55-3.89-133.02-1.11-35.47-57.65-72.05-120.83-92.55-63.18-20.5-114.73-46.55-139.97-54.34-25.24-7.79-35.73,2.25-55.68,8.35-19.95,6.1-40.18,13.03-78.43.56s-59.86,6.65-101.46,23.28c-41.6,16.63-86.43,38.25-127.16,64.02-40.74,25.77-36.57,109.33-32.83,151.31,3.67,41.18-10.12,66.12-10.65,67.07-2.58,2.27-5.27,2.19-8.05-1.39-11.64-14.96-25.5-79.26-49.89-99.21-24.39-19.95-91.46-112.78-98.11-171.81-6.65-59.03-29.11-168.77-33.27-207.01-4.16-38.24-14.77-105.16-16.54-134.05-1.76-28.89-10.42,28.06-10.42,28.06,0,0,12.55,75.79,13.1,116.8.56,41.01,12.76,170.15,12.76,193.43,0,1.99-1.21,7.85-3.22,16.95,14.63,129.65,43.47,213.8,102.44,300.07,59.86,87.57,146.33,146.31,206.19,194.53,59.86,48.22,107.25,79.81,248.58,79.8,129.7-.01,209.5-68.18,251.9-97.28,42.4-29.1,118.88-64.85,202.84-173.77,79.53-103.16,109.81-293.79,112.79-313.65.54-6.51.81-10.03.81-10.03,0,0,10.24-150.2,12.74-176.8,2.49-26.6,12.74-83.14,12.74-83.14l-15.36-43.19Zm-332.59,616.77c-4.43,15.7-10.95,29.8-20.58,38.33-29.1,25.77-124.47,48.89-141.1,37.25-8.43-9.24-30.75-34.65-23.92-51.37,8.31-20.37,14.93-28.27,12.87-44.89s2.09-37-12.04-35.75c-14.13,1.25-67.76,7.49-88.96,5.82-21.2,1.66-74.82-4.57-88.96-5.81-14.13-1.25-9.98,19.12-12.04,35.75-2.06,16.63,4.56,24.52,12.87,44.89,5.47,13.41-7.79,32.4-17.61,44.18-9.78,4.88-19.8,5.96-26.86,3.22-14.96-5.82-69.2-28.26-89.89-55.7-12.53-16.62-20.92-33.84-26.76-48.17-18.86-52.17-6.82-99.83-6.82-119.36,0-19.55,29.1-22.44,60.69-30.75,31.59-8.32,46.97-17.88,78.56-27.44s75.65,2.49,98.93,7.48,53.21-2.64,80.92-10.95c27.71-8.32,72.61,6.65,108.08,21.05,35.47,14.41,55.43,16.07,81.47,21.61,26.05,5.54,19.68,41.01,26.33,84.05,4.2,27.15-.87,63.46-5.18,86.57Z"/>
    <path class="cls-5" d="m1631.3,2035.2c9.17-7.48,15.31-14.45,20.37-18.58,13.72-11.22,26.4-22.24,26.4-22.24-62.03-9.58-117.02-21.82-138.09-27.08-21.06-5.26-46.56,3.88-72.05,9.7-28.66,6.54-48.44-2.08-80.09-6.09-34.92-4.43-65.4,9.43-92.28,14.97-26.88,5.54-61.45,8.94-61.45,8.94l-14.02-.16c38.47,45.95,60.49,61.43,102.8,70.01-4.74-2.98-9.54-6.76-13.74-11.44-14.55-16.21-21.62-28.68-5.82-26.6,15.8,2.08,72.74,5.82,105.58,4.98,32.84-.83,74.82-4.99,96.02-4.16s103.5-13.72,114.73-14.14c11.22-.42,27.29-3.08,20.78,8.31-2.65,4.64-5.83,9.31-9.14,13.6Z"/>
    <path class="cls-3" d="m1800.79,1414.59c0-13.61-5.15-26.02-13.59-35.39-19.36-6.35-49.83-12.11-78.74.15-8.37,9.36-13.46,21.7-13.46,35.24,0,5.21.79,10.23,2.19,14.99-.49-4.53-.08-9.94,2.87-14.99,6.86-11.74,22.14-3.67,22.81,4.66.67,8.33,48.68,1.47,48.68,1.47,0,0,3.12-11.78,13.51-12.02,8.47-.2,14.04,7.23,13.78,20.12,1.26-4.53,1.94-9.3,1.94-14.23Z"/>
    <path class="cls-3" d="m1220.85,1419.15c0-10.76-3.22-20.77-8.74-29.12-16.12-8.59-45.16-18.2-83.3-6.45-8.54,9.4-13.75,21.88-13.75,35.58,0,5.43.83,10.67,2.35,15.61-.71-4.77-.55-10.75,2.69-16.29,6.86-11.74,22.14-3.67,22.81,4.66.67,8.33,48.68,1.47,48.68,1.47,0,0,3.12-11.78,13.51-12.02,8.64-.2,14.25,7.55,13.74,20.92,1.29-4.56,2-9.37,1.99-14.35Z"/>
    <path class="cls-14" d="m1743.36,1454.05s1.34-18.16-3.88-24.47c-5.22-6.31-12.75-10.45-6.93-19.6,5.82-9.15,4.43-22.17,4.43-22.17,0,0-34.01,7.03-35.46,16.91-1.45,9.87,1.39,55.42,41.85,49.33Z"/>
    <path class="cls-17" d="m1757,1402.23l-1.25,10.18,11.64-3.12s-3.12,4.57-1.25,5.3,18.29,2.53,18.91,6.62c.62,4.09-1.04,13.65,2.08,4.92s4.16-20.37,1.66-23.9-3.74-7.27-7.07-3.12c-3.33,4.16-1.81,7.9-8.39,4.78-6.58-3.12-16.04-4.14-16.35-1.66Z"/>
    <path class="cls-14" d="m1165.6,1460.34s1.34-18.16-3.88-24.47c-5.22-6.31-12.75-10.45-6.93-19.6,5.82-9.15,4.43-22.17,4.43-22.17,0,0-34.01,7.03-35.46,16.91-1.45,9.87,1.39,55.42,41.85,49.33Z"/>
    <path class="cls-17" d="m1179.25,1408.51l-1.25,10.18,11.64-3.12s-3.12,4.57-1.25,5.3,18.29,2.53,18.91,6.62c.62,4.09-1.04,13.65,2.08,4.92,3.12-8.73,4.16-20.37,1.66-23.9-2.49-3.53-3.74-7.27-7.07-3.12-3.33,4.16-1.81,7.9-8.39,4.78s-16.04-4.14-16.35-1.66Z"/>
    <g>
      <path class="cls-7" d="m2100.3,1641.92s.84-55.98-9.14-75.1l-9.98-19.12s10.69,71.77,5.21,87.02c-5.48,15.24-27.85,34.58-27.85,34.58l2.97-78.36s6.1-131.36,29.65-153.53c23.55-22.17,24.92-14.4,25.5,3.34.58,17.74-2.13,63.46-6.47,79.22-4.34,15.76-8.48,27.45-6.69,42.42s.7,55.37-3.19,79.53Z"/>
      <path class="cls-4" d="m2069.27,1737.25c3.62-10.27,6.38-20.54,8.76-30.8,2.35-5.99,5.07-12.05,7.24-18.15,1.21-3.5,2.76-7.62,3.81-11.14.69-2.19,1.74-5.34,2.32-7.52,3.68-12.42,6.28-25.93,7.91-38.77,1.88-15.78,3.02-31.76,1.9-47.62-.95-13.21-3.34-26.18-6.53-38.96-1.47-5.92-3.41-13.11-5.25-18.94-1.29-3.77-1.14-7.83-1.73-11.76-.83-8.05-1.99-16.04-2.92-24.09,2.8,4.67,5.48,9.41,7.96,14.27,2.57,4.82,4.81,9.8,7.06,14.81.55,1.26.82,2.59,1.05,3.93,6.21,30.48,5.04,61.89,3.64,92.74-1.32,24.1-2.53,48.64-8.37,72.17-1.47,6.44-3.63,13.36-5.64,19.64-.42,1.3-.85,2.6-1.54,3.79-2.77,4.77-5.84,9.37-9.06,13.82-3.23,4.44-6.73,8.71-10.6,12.57h0Z"/>
      <path class="cls-4" d="m2100.74,1552.15c3.81-17.23,7.44-34.41,9.79-51.82,1.13-8.39,1.94-16.93,1.53-25.38-.59-8.48-1.01-17.96-1.22-26.33-.38-8.24-.06-16.51-2.55-24.18-.17-.46-.36-.82-.49-1.03-.12-.2-.21-.22.12.03.33.29,1.22.5,1.66.45.51-.05.55-.15.39-.05-15.58,10.76-32.44,24.81-34.72,44.69-.8,13.85-1.42,27.74-2.33,41.55-1.22,5.82-2.45,11.64-3.81,17.44-1.16,4.97-2.94,12.49-4.29,17.39-1.45-11.64-2.56-23.89-3.52-35.55.79-12.82,1.54-25.62,2.11-38.41.09-2.06.28-4.11.59-6.15,3.59-22.29,21.45-38.25,39.06-50.37,3.02-2.33,8.1-3.16,11.52-.55,3.91,2.87,5.03,7.19,6.07,11.33,3.34,16.39,2.78,33.04,2.22,49.54-.37,9.12-2.23,18.39-4.46,27.09-4.48,17.24-10.51,34.04-17.67,50.29h0Z"/>
      <path class="cls-4" d="m2064.82,1538.97c1.98,9.1,3.49,18.17,4.82,27.34.66,3.01-.05,6.04-.02,9.07,0,0-1.15,36.26-1.15,36.26-.58,24.11-2.37,49.11-6.21,72.89,0,0-9.9-4.99-9.89-4.99,0,0,6.03-8.02,6.03-8.02,14.6-19.22,27.53-40.72,27.97-65.63,7.48,24.9-2.22,53.57-17.84,73.48-2.44,3-4.92,5.77-7.88,8.34,0,0-12.61,12.85-12.61,12.85,3.64-23.38,7.33-47.63,8.1-71.26.57-15.27,1.72-45.64,1.92-61.06,1.9-9.84,4.11-19.55,6.75-29.27h0Z"/>
    </g>
    <g>
      <path class="cls-7" d="m866.22,1686.09s-1.21-52.85,8.65-70.98l9.86-18.12s-10.21,67.85-4.63,82.2c5.58,14.35,28.08,32.46,28.08,32.46l-3.49-73.98s-.32-123.99-24.01-144.76c-23.69-20.77-26.68-13.43-27.14,3.33-.46,16.76-2.44,59.91,2,74.76,4.44,14.85,8.66,25.87,6.97,40.01-1.69,14.14-.34,52.29,3.72,75.08Z"/>
      <path class="cls-4" d="m897.88,1775.89c-3.81-3.53-7.28-7.45-10.49-11.56-3.21-4.11-6.27-8.38-9.04-12.82-.69-1.11-1.13-2.34-1.57-3.56,0,0-1.27-3.68-1.27-3.68-5.98-16.92-9.53-34.92-11.22-52.75-1.7-17.68-2.85-35.46-3.45-53.21-.42-16.58-.53-33.34,1.68-49.89.51-4.4,1.7-10.91,2.56-15.26.23-1.27.49-2.54,1.03-3.72,4.3-9.5,9.14-18.64,14.64-27.4-1.29,10.27-2.7,20.35-3.72,30.34-.09,1.25-.46,2.43-.86,3.61-.74,2.07-2.54,8.45-3.18,10.69-4.02,14.41-7.11,29.07-8.11,44.07-.98,15.03.23,30.17,2.23,45.09,1.75,12.33,4.36,24.7,8.15,36.56,2.22,7.03,4.81,14.13,7.64,20.95,1.75,4.62,4.07,8.99,5.91,13.55,2.5,9.65,5.36,19.31,9.07,28.96h0Z"/>
      <path class="cls-4" d="m861.87,1602.98c-7.61-27.01-13.64-54.6-14.66-82.81-.88-12.69-2.07-25.36-1.04-38.29.4-3.43,1.02-7.51,3.8-10.32,3.15-3.38,8.51-2.86,11.85-.41,18.66,11.73,39.59,29.69,40.04,54.01.63,11.77,1.48,23.55,2.29,35.35-.43,5.61-.84,11.22-1.37,16.85-.46,4.85-1.11,12.09-1.72,16.9-1.36-4.63-3.12-11.66-4.31-16.44-1.37-5.49-2.61-10.99-3.84-16.49-.89-11.82-1.69-23.67-2.34-35.55-.63-20.77-18.81-34.65-34.94-45.15-.33-.22-.54-.29-.43-.25.46.11,1.22.1,1.81-.18.55-.25,1-.59,1.19-.92,0-.02-.13.26-.23.63-1.46,7.48-.21,15.26.09,23.1.33,5.54.53,11.16.46,16.86-1.68,27.74,1.26,55.43,3.35,83.13h0Z"/>
      <path class="cls-4" d="m901.02,1588.63c2.63,9.16,4.85,18.3,6.77,27.59.3,14.6,1.65,43.21,2.32,57.65.92,22.26,4.77,45.09,8.55,67.05-3.12-3.02-13.43-12.68-16.41-15.38-17.84-18.19-30.08-48.4-22.35-73.57.48,23.82,13.74,43.86,28.24,61.65,0,0,6.02,7.43,6.02,7.43,0,0-9.46,5.08-9.46,5.08-4-22.4-5.96-46.06-6.7-68.83,0,0-1.39-34.25-1.39-34.25.01-2.87-.7-5.72-.09-8.57,1.23-8.68,2.62-17.25,4.48-25.87h0Z"/>
    </g>
    <path class="cls-11" d="m1426.37,2042.81s43.65.41,66.51,0,124.29-19.13,115.56-11.23c-8.73,7.9-44.48,24.94-67.34,27.44s-43.72-1.24-58.65,1.25c-14.93,2.49-31.97,2.08-58.16,2.08-26.19,0-101.43-13.55-76.07-16.33,25.36-2.78,78.15-3.2,78.15-3.2Z"/>
  </g>
  <g id="Layer_3" data-name="Layer 3">
    <path class="cls-10" d="m1680.98,2372.38c-3.36.88-7.06,2.1-11.14,3.68-125.26,48.78-199.12,37.39-292.01,13.01-92.89-24.38-117.73-111.95-143.23-166.26-25.5-54.31,50.52-82.79,82.99-97.57,42.01-19.12-3.74-20.48-39.22-47.09-35.47-26.6-58.2-78.14-61.53-80.22-3.33-2.08-7.1-6.45,8.21-7.09,15.31-.64,74.92-16.19,88.64-23.45,13.72-7.26,61.52-12.28,73.57-14.78,12.05-2.49,34.08-102.26,39.07-117.22,4.99-14.96,16.22,82.72,17.46,93.94,1.25,11.22-19.12,20.37-27.43,22.86-8.31,2.49,3.74,13.3,23.69,17.04,19.95,3.74,40.32-7.9,50.3-15.8,9.98-7.9-38.25-110.57-41.31-123.04-3.06-12.47,14.7-17.88,25.09-23.48,10.39-5.61,71.5,17.66,113.98,0,42.48-17.67,36.67-83.13,36.67-83.13,1.84,29.73-57.54,34.29-79.44,25.56-21.9-8.73-57.08,17.46-90.33,27.02s-85.63,5.82-113.48-28.26c-27.85-34.08-3.33-88.4,5.42-119.55,8.75-31.15,20.61-156.74,19.5-165.05s2.77-48.22-11.64-73.01-41.57-108.78-45.94-128.73-70.46-24.94-98.72-44.35c-28.27-19.41-23.29-284.86-16.78-359.69,6.52-74.82,134.02-133.03,134.02-133.03,0,0-31.24-44.05-101.9-64.55-107.65,59.21-193.23,146.15-244.81,229.18-106.4,171.27-83.11,530.83-83.11,530.83,0,0-14.96-4.57-40.32,8.73-25.36,13.3-23.97,55.7-23.96,105.58s19.96,149.09,34.37,189.55c14.41,40.46,14.41,67.06,25.5,95.88,11.09,28.82,24.39,37.13,24.39,37.13,14.42,133.02,43.24,218.37,103.11,305.94,59.86,87.57,146.33,146.31,206.19,194.53,59.86,48.22,107.25,79.81,248.58,79.8,92.27-.01,159.28-34.52,205.54-64.91Z"/>
    <g class="cls-20">
      <path class="cls-4" d="m1800.75,723.04c66.86,28.3,84.46,154.59,90.71,309.22,6.24,154.63-64.96,187.44-64.96,187.44,56.55,31.69,5.84,85.18,5.84,85.18,37.17,22.09,4.13,57.79,4.13,57.79,24.66,16.7-9.97,32.62-9.97,32.62l35.47,32.7s-1.39,4.99-17.18,19.47c-15.8,14.48-31.87,17.39-31.87,17.39,0,0,1.94.55,12.19,3.6,10.25,3.05,30.62-3.47,22.72,13.58-7.9,17.04-39.07,30.12-39.07,30.12,0,0,38.8.08,82.72-4.35,43.92-4.44,48.09,177.35-8.44,223.97-56.53,46.61-184.01-37.18-215.05-56.02-31.04-18.84-108.35-46.75-108.35-46.75,0,0,26.73,27.64,38.79,52.58,12.06,24.94,17.46,88.95,1.67,106.44-15.79,17.48-72.35,21.88-72.35,21.88,0,0,7.62,5.25,34.11,9.69,26.5,4.44,36.58-1.66,74.82-15.52,38.24-13.86,2.5,72.88,54.46,91.17,51.96,18.29,69.42,64.84,81.87,204.51,8.29,92.97-30.72,192.56-57.73,248.77,4.31-3.08,8.33-5.95,12.05-8.5,42.4-29.1,118.88-64.85,202.84-173.77,83.96-108.91,113.05-315.37,113.05-315.37,15.52-10.53,29.93-27.71,41.01-46.56,11.08-18.84.55-52.1,13.3-86.46,12.75-34.36,13.85-62.08,17.17-110.85,3.32-48.77,2.22-24.39,12.74-72.61,10.53-48.22,13.85-78.15,14.4-113.62.55-35.47-11.64-35.47-22.17-47.11-10.53-11.64-40.46,13.3-40.46,13.3,0,0,0-5.54,0-29.93s-31.05-279.34-38.82-345.85c-7.76-66.51-56.54-171.81-147.44-253.83-15.98-14.42-34.51-28.53-54.18-42-36.61-3.06-53.51,1.13-38.04,7.68Z"/>
      <path class="cls-4" d="m1128.04,2278.65c-21.27-70.35,38.05-113.26,33.41-134.54-6.65-30.48-4.99-89.79,11.63-128.92,16.62-39.13-23.28-64.51-13.31-103.87,9.97-39.35,93.66-65.96,139.11-83.7,45.45-17.74,100.59-9.43,133.29-15.13,32.7-5.7,35.47-24.48,35.47-24.48l-14.96,6.07s-22.45,5.27-46,4.44c-23.56-.83-60.41-25.77-77.87-38.24-17.46-12.47-52.65,6.1-65.4-14.68s11.08-69.56,16.62-78.98c5.54-9.42,11.59-34.74,11.59-34.74,0,0-49.27,44.99-91.4,76.03s-62.63,52.66-139.11,54.05c-76.49,1.39-72.06-103.36-73.17-166.05-1.11-62.69,29.92-72.55,60.83-73.66,30.91-1.11,66.3-13.31,66.3-13.31,0,0-8.53-1.11-21.84-9.49-13.3-8.38,9.7-31.32,9.7-31.32l-12.68-2.91c-12.68-2.91-41.49-26.13-41.49-26.13l47.93-47.24s-12.05,7.9-26.19,4.84c-14.13-3.06,5.4-26.87,5.4-26.87-56.95-10.8-6.62-66-6.62-66-46.11-50.2,3.7-81.16,3.7-81.16-12.47-22.45,11.33-104.79,11.9-278.51.54-164.61,64.56-203.55,64.56-203.55,0,0-13.69-1.24-36.27-2.86-55.35,46.98-100.47,100.01-132.48,151.54-106.4,171.27-83.11,530.83-83.11,530.83,0,0-14.96-4.57-40.32,8.73-25.36,13.3-23.97,55.7-23.96,105.58s19.96,149.09,34.37,189.55c14.41,40.46,14.41,67.06,25.5,95.88,11.09,28.82,24.39,37.13,24.39,37.13,14.42,133.02,43.24,218.37,103.11,305.94,31.1,45.49,69.37,83.19,107.37,115.69Z"/>
    </g>
    <path class="cls-6" d="m1306.48,1320.92s19.04,47.52,38.69,80.63c19.64,33.12,21.65,53.88,21.07,64.83s-12.22,153.68-28.15,190.68c-15.94,37-9.84,67.13-5.68,76.28,0,0-15.38-15.17-17.88-32.63s-18.09-43.65-29.83-23.69c-11.74,19.95-26.29,57.37-11.74,61.52,14.55,4.16,45.52,6.02,41.78-12.27-3.74-18.29,30.76-85.42,30.76-85.42,0,0-12.26,83.97,21,108.49,33.26,24.52,95.47,16.21,121.1,1.24,25.63-14.97,33.53-32.43,50.99-24.53,17.46,7.9,54.04,24.52,57.78,0,3.74-24.53-35.75-79.81-40.74-59.02-4.99,20.78-12.05,59.44-5.4,68.59,6.65,9.14,1.35-1.66-23.85,7.9-25.2,9.56-45.98,18.43-45.98,18.43,0,0,50.4-47.53,46.65-85.36-3.74-37.83-7.07-98.93-7.07-98.93,0,0,18.95,40.74,49.33,57.78,30.38,17.04,44.74,36.04,56.74,53.62,10.86,15.92,26.44,29.65,39.33,59.02,12.89,29.37,25.78,58.82,25.78,58.82l-56.95-44.96s-12.05,50.56-59.44,54.32c-37.41,2.97-56.53-4.91-71.08-9.72-14.55-4.82-19.12-11.47-29.1-6.9-9.98,4.57-35.75,15.32-60.69,10.16-24.94-5.16-49.42-10.01-66.9-5.72-17.48,4.3-51.18,8.98-73.18,2.47-26.81-7.94-30.76-33.92-35.75-44.72,0,0-39.05,19.06-58.45,39.77,0,0,2.75-21.62,19.38-42.68,16.63-21.06,31.37-42.31,41.15-63.19,15.38-32.84,58.13-45.04,50.68-71.08-7.45-26.05-6.34-62.49-1.91-81.89s7.76-36.16-10.12-33.25c-17.87,2.91-44.89,14.97-66.92,11.64-22.03-3.32-34.92-8.95-34.92-8.95,0,0,22.86-5.6,41.57-22.64,18.7-17.04,6.03-25.08.41-26.05-5.61-.97-12.05-1.59-12.05-1.59,0,0,26.4-3.33,34.5-5.41,8.11-2.08,35.96-7.28,32.84-13.3-3.12-6.03-43.44-45.93-62.15-54.24-18.71-8.31-56.12-13.71-56.12-13.71,0,0,12.26-4.78,0-10.39-12.26-5.61-24.73-4.57-24.73-4.57,0,0,55.33-11.64,36.76-29.93-18.57-18.29-32.37-19.27-32.37-19.27,0,0,25.95.77,29.9,1.4s5.2,1.04,5.2,1.04l-8.78-7.27s14.19,3.74,26.66,7.07,60.48,10.8,75.03,13.09c14.55,2.29,45.52,8.1,43.96.52-1.56-7.58-2.39-8.31-2.39-8.31l1.33,2.33Z"/>
    <path class="cls-9" d="m1591.24,1306.22s-23.03,39.77-36.88,58.61-35.47,44.07-34.36,66.1c1.11,22.03-.03,71.5-.03,71.5,0,0,25.39-36.05,47.7-20.09,27.15,19.41,86.74,35.47,113.9,35.46,27.16,0,61.78,0,61.78,0,0,0-38.23-13.3-52.08-23-13.86-9.7-11.64-23.83,7.2-26.88,0,0-14.13-8.87-29.38-11.36-15.24-2.49-31.87-9.42-35.75-11.64s4.71-7.76,7.76-14,72.53-59.74,81.33-58.77c8.81.97,9.42,0,9.42,0,0,0-19.89-4.84-14.13-13.15s22.85-8.92,22.85-8.92c0,0-39.9-6.46-29.09-21.01,10.81-14.55,31.85-21.68,31.85-21.68,0,0-67.18,6.31-87.97,6.31-20.78,0-63.18,8.73-63.18,3.74,0-4.99-.94-11.22-.94-11.22Z"/>
    <g class="cls-18">
      <path class="cls-4" d="m867.67,1724.02c14.41,40.46,14.41,67.06,25.5,95.88,11.09,28.82,24.39,37.13,24.39,37.13,14.42,133.02,43.24,218.37,103.11,305.94,3.33,4.87,6.75,9.63,10.23,14.33-113.07-287.1-91.68-665.92-92.3-746.34-1.12-143.53,64.28-282.25,71.47-410.84,6.78-121.09,104.96-241.66,104.96-241.66.7-13.14-4.69-22.83-14.59-29.62-49.56,44.15-90.23,92.95-119.75,140.47-106.4,171.27-83.11,530.83-83.11,530.83,0,0-14.96-4.57-40.32,8.73-25.36,13.3-23.97,55.7-23.96,105.58s19.96,149.09,34.37,189.55Z"/>
      <path class="cls-4" d="m1849.77,723.04c104.25,138.04,96.97,290.93,96.97,334.78,0,43.85-6.65,84.18,32,183.94,38.65,99.76,41.19,315.92,36.21,575.1-2.54,132.28-46.62,260.83-89.18,355.02,1.46-1.86,2.93-3.74,4.4-5.64,83.96-108.91,113.05-315.37,113.05-315.37,15.52-10.53,29.93-27.71,41.01-46.56,11.08-18.84.55-52.1,13.3-86.46,12.75-34.36,13.85-62.08,17.17-110.85,3.32-48.77,2.22-24.39,12.74-72.61,10.53-48.22,13.85-78.15,14.4-113.62.55-35.47-11.64-35.47-22.17-47.11-10.53-11.64-40.46,13.3-40.46,13.3,0,0,0-5.54,0-29.93s-31.05-279.34-38.82-345.85c-7.76-66.51-56.54-171.81-147.44-253.83-12.97-11.7-27.62-23.2-43.19-34.32h0Z"/>
    </g>
    <path class="cls-5" d="m1262.29,1785.45s24.11,7.69,36.44,5.05c12.33-2.63-14.91-19.56-6.06-21.1s46.1,3.92,58.71,12.23c12.61,8.31,21.48,13.16,21.48,13.16,0,0-25.08-5.83-35.06-3.74-9.98,2.08-9.84,3.47-6.23,7.35,3.6,3.88,5.54,3.46,1.25,4.71-4.3,1.25-12.02,5.03-26.19,3.42-14.17-1.61-37.34-4.31-44.33-21.08Z"/>
    <path class="cls-5" d="m1607.59,1786.88s-12.47,6.93-30.21,6.93c-17.74,0-21.34-4.44-14.97-12.47,6.37-8.03,11.63-8.97,6.89-12.21-4.74-3.24-42.64.3-57.6,5.01-14.96,4.71-30.9,7.81-28.27,9.2,5.7,3.01,45.73,12.14,34.92,16.02-10.81,3.88-14.41,4.38-5.54,7.18,8.87,2.8,43.7,9.8,62.91,3.25,19.21-6.55,31.87-22.9,31.87-22.9Z"/>
    <path class="cls-5" d="m1606.59,1320.98s12.61,13.92,5.96,26.39c-6.65,12.47-39.07,59.03-40.73,79.4-1.66,20.37-.83,19.54,8.94,14.96,9.77-4.57,22.24-11.02,18.71-3.12-3.53,7.9-14.75,30.14-2.91,31.18,11.85,1.04,28.06-1.66,38.24-4.37,10.18-2.7,29.1-7.48,27.43-7.9s-40.32-7.69-36.17-13.09c4.16-5.4,21.1-19.8,23.72-22.03s50.89-53.17,90.79-50.25c39.91,2.92,78.43,15.48,90.62,23.33,12.19,7.85,38.24,35.42,38.24,35.42l-16.35,15.1s18.29-2.5,28.54,0c10.25,2.49,22.45,1.38,22.17.55s-3.6-5.27-3.6-5.27c0,0,12.19,4.16,20.78,2.49s13.02-2.5,9.14-3.74-24.39-11.98-32.98-25.46c-8.59-13.47-29.8-34.31-29.8-34.31,0,0,4.86,10.86-4.56,11.41s-62.63-23.83-91.73-28.54c-29.1-4.71-64.01,4.44-83.41,15.25-19.4,10.81-20.94-2.21-15.52-9.98s8.04-11.36,8.04-11.36c0,0-22.72-3.6-19.4-19.4,3.32-15.8,6.69-22.01,6.69-22.01l-60.88,5.33Z"/>
    <path class="cls-5" d="m1197.64,1316.88s19.18,17.62,15.03,28.85c-4.16,11.22-22.45,11.64-22.45,11.64,0,0,5.84,9.42,3.2,12.47s-17.88-6.06-52.52,1.4c-34.64,7.47-57.92,16.65-72.6,22.45-14.69,5.8-25.25,7.1-24.11,0,1.14-7.09,2.05-7.78,2.05-7.78,0,0-21.36,16.52-23.11,24.39-1.76,7.87-12.47,20.23-16.35,23.83l-3.88,3.6s7.76.76,11.5,0l3.74-.76s-1.66,1.87-3.74,2.91-5.82,2.29-5.82,2.29c0,0,8.52,4.57,16.84,5.2,8.31.62,15.2,2.21,23.69,6.44,8.5,4.23,20.86,4.76,20.86,4.76l-22.94-16.61s17.66-31.39,46.76-44.07c29.1-12.68,64.29-25.01,91.31-18.36s51.18,25.14,64.34,37.83c13.16,12.69,28.08,31.86,25.38,33.31s-42.19,8.32-42.19,8.32c0,0,38.45,7.95,30.55,12.81-7.9,4.86-11.85,9.22-11.85,9.22,0,0,23.69-7,37.55-7.83,13.86-.83,20.51-11.64,18.01-21.89s-4.16-18.57-4.16-18.57c0,0,10.53,5.98,14.41,11.86l3.88,5.88s.69-25.22-12.13-43.51-35.54-26.05-48.57-45.45c-13.03-19.4-14.88-36.29-14.88-36.29l-47.81-8.35Z"/>
    <path class="cls-2" d="m1584.31,1808.36s14.13-4.67,27.85-15.59c13.72-10.92,16.42-19.75,16.42-19.75,0,0,45.8,27.16,69.08,47.11,23.28,19.95,72.89,62.9,78.71,91.17,0,0,8.31-26.47-22.04-68.03-30.35-41.57-48.22-40.46-70.67-81.33-22.45-40.87-66.39-107.8-112.18-125.25,0,0,16.7,10.25,28.34,28.82,11.64,18.57,59.31,101.7-15.51,142.86Z"/>
    <path class="cls-2" d="m1290.81,1806.93s-42.37-7.56-56.09-35.27c0,0-31.73,31.04-47.8,51-16.07,19.95-62.9,54.32-71.77,81.48,0,0,2.49-32.98,22.99-65.96,20.51-32.98,36.02-39.35,50.43-76.21,14.41-36.86,99.81-120.2,99.81-120.2,0,0-87.13,133.93,2.42,165.16Z"/>
  </g>
  <g id="Layer_4" data-name="Layer 4">
    <path class="cls-4" d="m2054.85,1607.56s-1.12-244.98-17.75-310.37c-16.63-65.4-49.89-134.12-49.89-199.52,0-65.4,14.1-96.44-8.47-145.21-22.57-48.77-98.51-141.33-138.97-171.25-40.46-29.93-61.52-53.76-95.33-69.27-33.81-15.52-52.65-19.95-52.65-19.95,0,0,24.94,57.09,9.43,74.27,0,0,2.36-4.99-4.3-19.95-6.65-14.96-10.39-22.86-10.39-22.86,0,0,13.72,48.22-4.57,84.8,0,0,6.65-18.29-2.91-44.06-9.56-25.77-9.98-29.1-9.98-29.1,0,0,4.99,32.01,7.49,50.71,2.5,18.71,6.66,78.56-18.28,96.02,0,0,19.95-32.42,4.15-71.5-15.8-39.07-50.72-78.15-53.21-83.96l-2.49-5.82s29.66,115-28.53,145.49c0,0,18.84-19.4,18.29-61.52,0,0-36.02,105.31-122.48,73.72,0,0,43.79,4.99,67.62-21.07,0,0-13.86,9.98-32.15,6.65,0,0,32.15-6.1,43.23-45.45,11.08-39.35-7.21-80.92-7.21-80.92,0,0-1.11,29.93-6.09,46l-4.99,16.07-.56-28.82s-6.09,41.57-21.61,60.41l-15.52,18.85s17.18-44.89,14.96-75.38c-2.22-30.48-2.77-38.8-2.77-38.8,0,0-8.31,29.93-18.84,43.23-10.53,13.3-11.64,24.39-19.95,44.34-8.31,19.95-19.4,33.81-19.4,33.81v-12.75s-15.52,12.75-29.93,13.3l-14.41.56s44.34-18.29,48.77-50.99c4.43-32.7-.56-50.99,3.32-63.74l3.88-12.75s-29.93,34.36-37.69,37.69-17.18-18.84-37.13-6.09c-19.95,12.75-24.39,18.29-22.17,15.52s3.39-22.72-.52-16.63-3.91,9.42-12.78,20.51-9.42,31.59-9.42,31.59l-9.42-20.51s-4.43,11.64,4.99,26.05,11.64,16.07,11.64,16.07c0,0-33.26-12.75-41.02-34.91s-11.64-30.48-11.64-30.48l1.66,27.71s-12.75-12.19-16.63-27.16c-3.88-14.96-3.88-20.51-3.88-17.74s-9.42,17.18-3.32,35.47c6.1,18.29,1.66,18.29,1.66,18.29,0,0-44.34-30.48-48.78-41.01s-1.66-17.74-13.86-9.42c-12.19,8.31-19.4,21.62-18.29,12.75,1.11-8.87,2.77-29.93,1.11-28.27s-8.31,11.09-24.94,17.74-27.71,21.62-35.47,30.49c-7.76,8.87-67.06,41.02-98.1,88.68-31.03,47.67-54.31,101.98-60.96,167.38-6.65,65.4-32.14,123.04-41,187.34-8.86,64.29-16.34,132.19-18,173.76-1.66,41.57-14.96,107.25-14.96,129.69,0,22.45-6.65,3.33-11.64-9.14-4.99-12.47-14.69-53.83-19.13-132.44-4.63-82.08-22.33-170.33-9.98-240.84,16.64-94.99,3.86-180.41,54.84-266.87,50.99-86.46,86.45-147.43,119.71-180.69,33.25-33.26,120.82-126.37,216.15-156.31,95.33-29.93,159.62-45.51,206.18-44.41,46.56,1.11,64.29-2.17,98.66,5.59,34.36,7.76,106.14,9.42,158.24,31.58,52.1,22.17,105.31,68.72,139.67,96.43s93.67,51.26,144.66,125.53,90.63,182.06,103.93,210.88c13.3,28.82,29.42,80.92,37.16,117.5,7.74,36.58,4.97,44.34,2.76,71.5-2.22,27.16-5.54,29.93-8.86,53.76s-12.47,69-10.25,106.69c2.22,37.69,6.38,51.56.28,66.38-6.1,14.82-10.53,18.14-11.64,36.99-1.11,18.84-11.64,24.07-11.64,38.92,0,14.85-3.88,35.35-6.65,43.67l-2.77,8.31s0-18.29-1.11-16.07-6.65,20.51-9.42,28.82l-2.77,8.31s-3.33-14.41-3.88-11.64.56,35.47-6.65,54.87c-7.2,19.4-14.32,36.04-14.41,24.94Z"/>
    <g class="cls-19">
      <path class="cls-12" d="m2059.23,1405.56c-.38-1.44-.65-2.1-.65-2.1,0,0,.2.71.65,2.1Z"/>
      <path class="cls-12" d="m2104.7,974.61c-13.3-28.82-52.94-136.62-103.93-210.88-50.99-74.27-110.3-97.82-144.66-125.53-34.36-27.71-87.57-74.26-139.67-96.43-52.1-22.17-123.87-23.83-158.24-31.58-34.36-7.76-52.1-4.49-98.66-5.59-46.56-1.11-110.85,14.47-206.18,44.41-95.33,29.93-182.89,123.05-216.15,156.31-33.25,33.26-68.72,94.23-119.71,180.69-50.99,86.46-38.21,171.88-54.84,266.87-12.35,70.51,5.35,158.75,9.98,240.84,3.93,69.63,11.99,110.02,17.25,127.01,1.44-37.86,21-137.56,21-137.56l-14.96,23.28,16.62-61.52-16.63,20.79s6.65-48.22,6.65-72.33c0-24.11,19.95-54.87,19.95-54.87l-19.95,15.8,33.25-83.14-23.28,25.77s14.96-41.57,19.12-66.51c4.16-24.94,30.76-72.54,30.76-72.54l-30.76,30.91,23.28-52.31-23.28,21.4s11.64-28.05,17.46-43.02c5.82-14.96,25.77-55.7,25.77-55.7l-25.77,24.11c7.58-7.09,11.37-28.31,15.79-37.87,9.94-21.52,22.8-42.06,36.63-61.27-15.7,2.03-30.54,10.1-40.77,22.17,10.67-21.2,21.35-42.39,32.02-63.59,4.57-9.07,9.2-18.23,15.76-25.98,8.37-9.88,19.45-16.98,29.5-25.15,24.63-20,43.46-47.06,53.65-77.11,1.37,9.78,2.74,19.57,4.11,29.35,18.34-22.94,41.21-42.25,66.89-56.5-1.21,14.43-2.43,28.86-3.64,43.29,12.09-22.77,34.29-39.93,59.36-45.92-4.08,10.37-8.15,20.75-12.23,31.12,19.47-12.96,40.06-24.25,61.45-33.72-5.93,19.78-11.86,39.57-17.78,59.35,14.35-13.95,25.63-24.68,43.28-33.23,12.67-6.14,24.56-14.94,36.16-22.88l-5.54,11.64c-4.95,10.39-21.81,37.54-27.74,43.65,1.87-.88,4.65-2.25,8.34-4.3,9.98-5.54,46-31.59,60.96-59.86,14.96-28.27,46.55-53.76,46.55-53.76,0,0-1.11,9.42-7.2,28.27-6.1,18.84-23.28,44.34-23.28,44.34l14.41-9.98-4.43,8.31c-4.43,8.31-26.05,47.67-26.05,47.67,0,0,11.08-14.97,25.49-26.61,14.41-11.64,32.14-32.7,32.14-32.7l-6.09,30.48,14.96-17.18c14.96-17.18,26.6-27.16,26.6-27.16,0,0,1.66,24.39,6.65,46,4.99,21.62,0,63.74,0,63.74,0,0,.55-2.22,6.65-20.51,6.1-18.29,6.65-62.63,6.65-62.63l18.29,22.72s0-7.76,0-31.04c0-23.28,5.96-60.97,5.96-60.97,0,0,3.46,4.99,7.34,22.72,3.88,17.74,16.08,33.81,16.08,33.81v-18.29s2.22,5.54,8.31,22.72c6.1,17.18,30.49,45.45,36.59,87.57,6.1,42.12-24.94,70.39-24.94,70.39,62.77-28.27,37.4-125.54,37.4-125.54l11.64,16.63-2.5-35.75-9.15-27.43s7.48,7.48,27.44,28.26c19.95,20.78,37.42,64.01,37.42,64.01v-15.8c0-15.8-17.46-73.99-17.46-73.99l32.43,34.08-3.33-14.96c-3.33-14.96-33.26-59.02-33.26-59.02l84.8,37.41-10.81-29.1s5.82,3.33,26.6,15.79c24.49,14.69,47.58,29.04,67.17,50.24-1.58-13.15-1.96-26.43-1.15-39.65,6.36,8.28,12.71,16.56,19.07,24.84,3.44,4.48,6.96,9.13,8.26,14.62,1.99,8.39.23,20.26,8.45,22.88.38-5.12.75-10.25,1.13-15.37,4.16,17.4,9.74,35.54,22.97,47.57,9.74,8.86,22.54,13.4,33.85,20.13,16.21,9.64,29.54,24.07,37.85,41-2.79-12.4-4.27-25.1-4.41-37.81,12.8,12.11,25.61,24.22,38.41,36.34-4.12-11.55-8.24-23.1-12.37-34.64,18.3,14.73,36.97,29.86,49.38,49.81,7.42,11.93,12.39,25.27,20.08,37.02,9,13.76,21.78,25.48,26.76,41.15-15.67-6.51-32.2-10.93-49.02-13.1,5.58,12.76,12.96,24.73,21.86,35.44-9.03-1.28-18.05-2.57-27.08-3.85,12.77,17.84,20.96,38.88,23.95,60.6,2.69,19.53-3.61,38.82,1.67,57.68,5.82,20.79,29.93,71.49,29.93,71.49l-8.31-7.48c-8.31-7.48-35.75-31.59-35.75-31.59l29.93,59.86-19.12-7.48s4.99,14.96,13.3,35.75c8.31,20.78,12.47,54.04,24.95,93.11,12.47,39.07,23.28,80.23,23.28,80.23l-18.29-22.45s11.64,37.41,11.23,38.66-11.22-14.13-11.22-14.13c0,0,4.99,22.86,13.3,41.57,8.31,18.71,13.72,67.76,13.72,67.76,0,0-2.49-7.48-11.22-27.02-6.34-14.19-9.38-22.88-10.58-26.58.8,3,2.12,9.38,2.68,20.34.83,16.21,7.9,42.4,7.9,42.4l-11.22-16.21s2.5,24.94,10.39,44.48c3.74,9.26,6.65,22.81,8.67,34.51,1.04,3.52,2.14,8.3,2.14,8.3l2.77-8.31c2.77-8.31,8.31-26.6,9.42-28.82,1.11-2.22,1.11,16.07,1.11,16.07l2.77-8.31c2.77-8.31,6.65-28.82,6.65-43.67,0-14.85,10.53-20.07,11.64-38.92,1.11-18.84,5.54-22.17,11.64-36.99,6.1-14.82,1.94-28.69-.28-66.38-2.22-37.69,6.92-82.86,10.25-106.69,3.32-23.83,6.65-26.6,8.86-53.76,2.22-27.16,4.99-34.92-2.76-71.5-7.74-36.58-23.86-88.68-37.16-117.5Z"/>
      <path class="cls-12" d="m1294.38,741.88c.36-.06.92-.51,1.64-1.24-3.18,1.5-3.73,1.59-1.64,1.24Z"/>
    </g>
    <path class="cls-15" d="m2103.04,1038.07s-.44-1.28-1.26-3.54c-3.24-8.93-12.4-33.08-23.69-52.99l-14.13-24.94v24.94s-12.47-22.45-22.45-29.93l-9.98-7.48s15.8,22.06,24.94,49.69c9.15,27.63,10.81,39.27,10.81,39.27l-24.11-34.92,15.8,39.9-27.44-28.26s24.94,52.37,35.75,80.64c10.81,28.27,24.94,61.52,21.62,57.36-3.33-4.16-36.58-49.05-36.58-49.05,0,0,14.97,69,14.97,64.01,0-4.99-15.8-24.11-15.8-24.11,0,0,16.63,44.06,15.8,66.51-.83,22.45.83,29.93-.83,22.45-1.66-7.48-18.29-42.4-18.29-42.4,0,0,9.15,63.18,19.13,93.94,9.98,30.76,15.8,59.03,18.29,79.81s5.82,32.42,4.16,26.6c-1.66-5.82,14.13-47.39,9.14-88.96-4.99-41.57-7.49-57.36-7.49-57.36,0,0,11.64,19.95,11.64,16.63,0-3.33-9.98-70.67-9.98-70.67l18.29,32.42s8.31-38.24,4.15-58.2c-4.16-19.95-6.65-34.92-6.65-34.92l17.46,16.63s-21.06-40.74-26.61-59.58c-5.54-18.84-11.09-31.04-11.09-31.04l17.74,25.49-13.86-38.24,27.72,49.88-17.18-49.6Z"/>
    <path class="cls-15" d="m937.46,988.53s-11.08,14.41-23.28,38.8c-12.19,24.39-13.3,30.55-13.3,30.55l18.29-15.03-33.81,59.31,26.05-16.07s-32.7,75.38-36.57,101.43c-3.88,26.05-5.54,38.8-5.54,38.8l16.07-26.6s-8.87,41.57-10.53,73.71,2.22,56.53,2.22,56.53c0,0,20.5-78.7,26.32-95.33,5.82-16.63,10.25-28.82,10.25-28.82l-10.25,9.42s11.36-45.45,14.13-55.98c2.77-10.53,5.54-21.62,5.54-21.62l-12.75,9.42,24.38-49.88-14.96,10.53,14.41-46-9.42,4.99,21.06-59.86-15.52,19.4,10.53-40.46-3.33,2.77Z"/>
    <path class="cls-13" d="m1260.01,565.07s-5.82,19.12-15.79,31.59l-9.98,12.47,29.93-14.13s-33.25,43.23-36.58,58.2l-3.32,14.96s37.41-35.75,71.49-51.55c34.08-15.8,45.72-20.79,39.9-18.29-5.82,2.49-15.8,14.13-11.64,14.13,4.16,0,47.39-15.8,47.39-15.8,0,0-21.61,22.45-28.26,39.91l-6.65,17.46s38.24-36.58,58.19-45.73,30.76-18.29,30.76-15.8,0,21.62,0,21.62l11.64-18.29s-6.65,39.07-4.99,49.88l1.66,10.81s24.94-44.06,42.4-58.2l17.46-14.13v23.28s13.3-22.45,13.3-22.45c0,0,4.16,24.94,13.3,42.4l9.15,17.46v-34.09s14.96,34.92,21.62,57.36c6.65,22.45,7.48,28.27,7.48,28.27,0,0-.83-48.22,0-65.68.83-17.46,0-21.62,0-21.62,0,0,23.28,39.9,23.28,35.75s.83-24.94,7.48-38.24l6.65-13.3,4.16,22.45s30.76-10.81,46.56-8.32c15.8,2.49,16.63-2.5,15.8,2.49-.83,4.99-7.48,15.8-7.48,15.8l84.8,4.98-8.31,14.97s44.89,9.14,68.17,18.29c23.28,9.14,32.42,9.14,29.93,11.64-2.49,2.49-16.63,8.31-16.63,8.31,0,0,54.87,10.8,69.84,26.6s28.27,24.11,28.27,24.11l-9.15-19.12,44.9,38.24s-17.46-49.88-40.74-64.84c-23.28-14.96-60.69-27.43-79.81-46.55-19.12-19.12-30.76-35.75-61.52-44.06-30.76-8.31-49.88-12.47-49.88-12.47l41.57-4.99s-83.97-44.06-112.24-44.06c-28.27,0-36.58,6.65-91.45-4.15-54.87-10.8-120.55-19.11-157.96-5.81s-62.35,19.13-62.35,19.13c0,0,5.82-11.64,2.49-10.81s-57.36,33.26-57.36,33.26l.83-11.64-10.81,18.29-5.4-1.45-2.08-8.52Z"/>
    <path class="cls-13" d="m1282.04,574.63s-8.73,13.3-17.04,28.68c-8.31,15.38-11.64,20.37-11.64,20.37l31.59-13.72s-33.68,22.45-42.2,41.99l-8.51,19.54s33.81-31.18,58.89-39.49c25.08-8.32,33.39-15.38,29.65-10.81s-14.55,23.28-14.55,23.28l20.78-10.81s-14.96,25.36-27.02,43.65l-12.05,18.29s42.4-24.11,57.78-39.49c15.38-15.38,19.95-20.99,19.95-20.99,0,0-22.86,30.97-19.95,29.72s35.33-36.58,54.04-45.73,21.61-22.03,20.37-14.55-6.65,41.57-6.65,41.57l6.9-13.3-16.04,41.15,13.72-17.46-14.55,35.33s14.13-14.55,37.41-34.09c23.28-19.54,36.58-40.74,36.58-39.08s-7.9,42.4-7.9,42.4l17.87-39.08s-7.06,37-6.65,35.75,18.29-49.47,18.29-49.47c0,0,13.72,35.75,23.7,45.72,9.98,9.98,18.71,32.01,27.44,47.8,8.73,15.8,11.22,23.28,9.98,19.54-1.25-3.74.3-54.04.3-54.04l9.68,29.93v-44.48s7.21,23.06,22.31,30.86c15.1,7.8,9.7-.93,7.62-5.92-2.08-4.99-16.63-38.24-5.41-61.52,11.22-23.28,16.21-37.41,14.96-36.58s-15.8,13.72-15.8,13.72l8.31-28.68s-29.51-.83-46.14,14.14c-16.63,14.97-24.52,21.62-22.45,18.29s21.2-36.58,21.2-36.58c0,0-40.32,27.02-36.58,21.2,3.74-5.82,22.03-35.75,22.03-35.75,0,0-40.74,2.91-68.17,20.37-27.43,17.46-40.32,24.53-39.49,22.45s6.23-26.19,6.23-26.19l-39.9,32.43s16.21-40.74,12.05-34.92-41.57,32.43-54.87,41.16l-13.3,8.73s41.98-54.04,39.9-52.79-49.05,27.02-47.8,26.19,27.85-31.59,25.35-29.51-48.63,21.62-59.02,34.51-12.05,15.38-10.39,12.89c1.66-2.49,11.22-30.35,11.22-30.35l-23.69,17.46,7.07-21.62-5.4,7.9Z"/>
  </g>
</svg>