<svg width="21" height="17" viewBox="0 0 21 17" fill="none" xmlns="http://www.w3.org/2000/svg">
<path d="M20.3832 2.156C19.6197 2.4937 18.8101 2.71548 17.9812 2.814C18.8549 2.29144 19.5089 1.46902 19.8212 0.500003C19.0012 0.988003 18.1022 1.33 17.1652 1.515C16.5358 0.841582 15.7015 0.394966 14.7921 0.244588C13.8827 0.0942092 12.9491 0.248494 12.1364 0.683456C11.3238 1.11842 10.6776 1.80969 10.2983 2.6498C9.91902 3.4899 9.82793 4.43178 10.0392 5.329C8.37629 5.24566 6.74952 4.81353 5.26447 4.06067C3.77943 3.30781 2.46931 2.25105 1.41918 0.959003C1.04747 1.59745 0.852138 2.32323 0.853183 3.062C0.853183 4.512 1.59118 5.793 2.71318 6.543C2.04919 6.5221 1.39982 6.34278 0.819183 6.02V6.072C0.819384 7.0377 1.15355 7.97362 1.76503 8.72106C2.37651 9.46851 3.22766 9.98148 4.17418 10.173C3.5578 10.34 2.91149 10.3647 2.28418 10.245C2.55105 11.0762 3.07119 11.8032 3.77178 12.3241C4.47236 12.845 5.31831 13.1338 6.19118 13.15C5.32366 13.8313 4.33036 14.335 3.26806 14.6322C2.20577 14.9294 1.09531 15.0143 0.000183105 14.882C1.91188 16.1114 4.13728 16.7641 6.41018 16.762C14.1032 16.762 18.3102 10.389 18.3102 4.862C18.3102 4.682 18.3052 4.5 18.2972 4.322C19.116 3.73017 19.8228 2.99702 20.3842 2.157L20.3832 2.156Z" fill="#ffffff"/>
</svg>
