<svg width="29" height="29" viewBox="0 0 29 29" fill="none" xmlns="http://www.w3.org/2000/svg">
  <rect x="0.652832" y="0.695801" width="28" height="28" rx="2" fill="#0088D1"/>
  <svg id="Layer_1" data-name="Layer 1" xmlns="http://www.w3.org/2000/svg" viewBox="0 0 20 20" width="20" height="20" y="4.8" x="4.8">
    <defs>
      <style>
        .cls-1 {
          fill: #011221;
        }
      </style>
    </defs>
    <path class="cls-1" d="M20,20H0V0h20v20ZM0.98,0.98v18.04h18.04V0.98H0.98Z"/>
    <path class="cls-1" d="M14.89,9.4c-0.12,0-0.22,0-0.3,0.01c-0.62,0.05-1.19,0.32-1.59,0.74c-0.2,0.21-0.38,0.51-0.46,0.78c-0.1,0.3-0.1,0.29-0.1,0.76c0,0.6,0.03,0.74,0.23,1.14c0.2,0.4,0.51,0.72,0.96,1.01c0.2,0.12,0.7,0.37,1.11,0.55c0.89,0.39,1.18,0.57,1.31,0.83l0.05,0.11v0.23c0,0.22,0,0.23-0.05,0.32c-0.1,0.21-0.34,0.38-0.64,0.46c-0.12,0.03-0.17,0.04-0.43,0.04c-0.25,0-0.31,0-0.43-0.03c-0.2-0.05-0.37-0.12-0.5-0.21c-0.16-0.11-0.48-0.43-0.61-0.62c-0.06-0.08-0.11-0.15-0.13-0.15c-0.02,0-1.12,0.63-1.32,0.75c-0.06,0.04-0.08,0.06-0.08,0.09c0,0.07,0.26,0.46,0.46,0.69c0.41,0.48,1.23,0.91,1.96,1.01c0.29,0.04,0.77,0.06,1.1,0.03c0.22-0.02,0.44-0.06,0.68-0.13c0.86-0.25,1.45-0.79,1.67-1.52c0.09-0.3,0.12-0.67,0.1-0.98c-0.06-0.64-0.26-1.09-0.64-1.48c-0.36-0.36-0.85-0.65-1.82-1.08c-0.84-0.37-1.06-0.51-1.18-0.77c-0.1-0.22-0.08-0.53,0.05-0.72c0.15-0.22,0.47-0.34,0.82-0.29c0.33,0.04,0.54,0.17,0.75,0.46c0.11,0.15,0.18,0.22,0.22,0.22c0.04,0,0.19-0.09,0.66-0.41c0.48-0.32,0.63-0.43,0.64-0.46c0.02-0.05-0.06-0.17-0.28-0.44c-0.44-0.54-0.96-0.83-1.63-0.9c-0.16-0.02-0.38-0.03-0.57-0.03h0Zm-5.31,0.09c-0.4,0-0.85,0-1.35,0c-2.61,0-3.21,0-3.23,0.02c-0.02,0.02-0.02,0.18-0.02,0.77v0.75h1.19s1.19,0,1.19,0v3.36c0,1.85,0,3.37,0.01,3.39v0.03h0.87c0.77,0,0.86,0,0.87-0.02c0-0.01,0-1.54,0-3.39v-3.37h1.19s1.19,0,1.19,0v-0.76c0-0.66,0-0.76-0.02-0.78c-0.01,0-0.69-0.01-1.88-0.01h0Z"/>
  </svg>
</svg>
