<svg width="29" height="29" viewBox="0 0 29 29" xmlns="http://www.w3.org/2000/svg">
  <rect x="0.65" y="0.7" width="28" height="28" rx="2" fill="#007ACC"/>
  <g transform="translate(4.65 4.7) scale(0.078125)" fill="white" fill-rule="evenodd">
    <path d="M181.53,254.25c4.03,1.57,8.63,1.47,12.7-0.49l52.71-25.36c5.54-2.66,9.06-8.27,9.06-14.42V42.02c0-6.15-3.52-11.75-9.06-14.42L194.23,2.24c-5.34-2.57-11.59-1.94-16.28,1.47c-0.67,0.49-1.31,1.03-1.91,1.63L75.15,97.39L31.2,64.02c-4.09-3.11-9.81-2.85-13.61,0.61L3.49,77.45c-4.65,4.23-4.65,11.54-0.01,15.77L41.59,128L3.48,162.77c-4.64,4.24-4.64,11.55,0.01,15.78l14.1,12.82c3.8,3.46,9.52,3.71,13.61,0.61l43.95-33.36l100.9,92.05C177.65,252.26,179.52,253.47,181.53,254.25z M192.04,69.89L115.48,128l76.56,58.12V69.89z"/>
  </g>
</svg>
